<?xml version="1.0" encoding="utf-8"?>
<!-- Generator: Adobe Illustrator 27.0.0, SVG Export Plug-In . SVG Version: 6.00 Build 0)  -->
<svg version="1.1" id="圖層_1" xmlns="http://www.w3.org/2000/svg" xmlns:xlink="http://www.w3.org/1999/xlink" x="0px" y="0px"
	 viewBox="0 0 648.6 402.9" style="enable-background:new 0 0 648.6 402.9;" xml:space="preserve">
<style type="text/css">
	.st0{fill:#EBEBEB;}
	.st1{fill:#FFFFFF;}
	.st2{fill:#C7C7C7;}
	.st3{fill:#DBDBDB;}
	.st4{fill:#263238;}
	.st5{fill:#407BFF;}
	.st6{fill:#455A64;}
	.st7{opacity:0.2;fill:#FFFFFF;enable-background:new    ;}
	.st8{opacity:0.2;enable-background:new    ;}
	.st9{fill:#F7A9A0;}
	.st10{opacity:0.1;enable-background:new    ;}
	.st11{fill:#37474F;}
	.st12{fill:#FF9CBD;}
</style>
<path class="st0" d="M636.1,79.1l5.9-9.5l-2.9-1.8c-0.8-0.5-1.3-1.5-1.2-2.5c0-0.6,0.1-1.1,0.1-1.7c0-1,0.5-1.9,1.4-2.4l3-1.6
	l-5.3-9.8l-3,1.6c-0.9,0.5-2,0.4-2.8-0.2c-0.5-0.3-0.9-0.6-1.4-0.9c-0.9-0.5-1.4-1.4-1.4-2.4l0.1-3.4l-11.2-0.3l-0.1,3.4
	c0,1-0.6,1.9-1.6,2.3c-0.2,0.1-0.5,0.2-0.7,0.4s-0.5,0.3-0.7,0.4c-0.8,0.5-1.9,0.5-2.8,0l-2.9-1.8l-5.9,9.5l2.9,1.8
	c0.9,0.5,1.3,1.5,1.2,2.5c0,0.6-0.1,1.1-0.1,1.7c0,1-0.5,1.9-1.4,2.4l-3,1.6l5.3,9.8l3-1.6c0.9-0.5,2-0.4,2.8,0.2
	c0.5,0.3,0.9,0.6,1.4,0.9c0.9,0.5,1.4,1.4,1.4,2.4l-0.1,3.4l11.2,0.3l0.1-3.4c0-1,0.6-1.9,1.6-2.3l0.7-0.4c0.2-0.1,0.5-0.3,0.7-0.4
	c0.9-0.5,1.9-0.5,2.8,0L636.1,79.1z M626.6,72.1c-4.5,2.4-10,0.7-12.4-3.8c-2.4-4.5-0.7-10,3.8-12.4c4.4-2.4,9.9-0.7,12.3,3.7
	C632.7,64.1,631.1,69.7,626.6,72.1C626.6,72.1,626.6,72.1,626.6,72.1L626.6,72.1z"/>
<path class="st0" d="M76,212l-3.9-6.8l-2.1,1.2c-0.6,0.4-1.4,0.3-2-0.1c-0.3-0.2-0.7-0.4-1-0.6c-0.6-0.3-1-1-1-1.7v-2.4h-7.8v2.4
	c0,0.7-0.4,1.3-1,1.7c-0.3,0.2-0.7,0.4-1,0.6c-0.6,0.4-1.4,0.4-2,0.1l-2.1-1.2l-3.9,6.8l2.1,1.2c0.6,0.4,1,1,0.9,1.7
	c0,0.2,0,0.4,0,0.6s0,0.4,0,0.6c0,0.7-0.3,1.4-0.9,1.7l-2.1,1.2l3.9,6.8l2.1-1.2c0.6-0.4,1.4-0.3,2,0.1c0.3,0.2,0.7,0.4,1,0.6
	c0.6,0.3,1,1,1,1.6v2.4h7.8v-2.4c0-0.7,0.4-1.3,1-1.6c0.3-0.2,0.7-0.4,1-0.6c0.6-0.4,1.4-0.4,2-0.1l2.1,1.2l3.9-6.8l-2.1-1.2
	c-0.6-0.4-1-1-0.9-1.7c0-0.2,0-0.4,0-0.6s0-0.4,0-0.6c0-0.7,0.3-1.4,0.9-1.7L76,212z M68.6,215.5c0,3.5-2.9,6.4-6.4,6.4
	s-6.4-2.9-6.4-6.4c0-3.5,2.9-6.4,6.4-6.4C65.7,209.1,68.6,211.9,68.6,215.5C68.6,215.5,68.6,215.5,68.6,215.5L68.6,215.5z"/>
<path class="st0" d="M39.2,257.9c-16.8,0-30.5,13.6-30.5,30.5c0,16.8,13.6,30.5,30.5,30.5c16.8,0,30.5-13.6,30.5-30.5c0,0,0,0,0,0
	C69.7,271.6,56,257.9,39.2,257.9C39.2,257.9,39.2,257.9,39.2,257.9z M39.2,302.6c-7.9,0-14.2-6.4-14.2-14.2
	c0-7.9,6.4-14.2,14.2-14.2s14.2,6.4,14.2,14.2c0,0,0,0,0,0C53.4,296.3,47,302.6,39.2,302.6L39.2,302.6z"/>
<polygon class="st0" points="45,259.2 33.3,259.2 34,250.9 44.4,250.9 "/>
<polygon class="st0" points="22.7,263.1 14.4,271.4 9,265.1 16.4,257.7 "/>
<polygon class="st0" points="9.8,281.7 9.8,293.4 1.5,292.8 1.5,282.4 "/>
<polygon class="st0" points="13.7,304 22,312.3 15.7,317.7 8.3,310.3 "/>
<polygon class="st0" points="32.3,317 44,317 43.3,325.3 32.9,325.3 "/>
<polygon class="st0" points="54.6,313 62.9,304.8 68.3,311.1 60.9,318.5 "/>
<polygon class="st0" points="67.5,294.5 67.5,282.8 75.8,283.4 75.8,293.8 "/>
<polygon class="st0" points="63.6,272.2 55.3,263.9 61.6,258.5 69,265.8 "/>
<path class="st0" d="M586,338.3c5.7-0.1,20.4-0.4,25.9-0.4h8.5l-0.5,0.5v-11.2l0.5,0.5c-5.7,0-20.3-0.1-25.8-0.2l-8.6-0.1l0.2-0.2
	L586,338.3L586,338.3z M586,338.3l-0.2-11.2v-0.2h0.2c4.3-0.1,12.9-0.2,17.2-0.2l17.2-0.1h0.5v0.5v11.2v0.4h-0.5h-8.7
	C606.3,338.6,591.7,338.4,586,338.3L586,338.3z"/>
<path class="st0" d="M605.3,352.4c5.7-0.1,20.4-0.3,25.9-0.4l8.5,0l-0.4,0.5l-0.1-11.2l0.5,0.5c-5.7,0-20.3-0.1-25.8-0.1l-8.6-0.1
	l0.2-0.2L605.3,352.4z M605.3,352.4l-0.2-11.2v-0.2h0.2c4.3-0.1,12.9-0.2,17.2-0.2l17.2-0.1h0.5v0.5v11.2v0.5h-0.5h-8.7
	C625.6,352.8,611,352.5,605.3,352.4L605.3,352.4z"/>
<path class="st0" d="M569.1,165.7c5.7-0.1,20.4-0.3,25.9-0.4h8.5l-0.5,0.4v-11.2l0.5,0.5c-5.7,0-20.3-0.1-25.8-0.1l-8.6-0.1l0.2-0.2
	L569.1,165.7z M569.1,165.7l-0.2-11.2v-0.2h0.2l17.2-0.2l17.2-0.1h0.5v0.5l-0.1,11.2v0.5h-0.5h-8.7
	C589.4,166.1,574.8,165.8,569.1,165.7L569.1,165.7z"/>
<path class="st0" d="M588.4,179.8c5.7-0.1,20.4-0.3,25.9-0.4h8.5l-0.5,0.4l-0.1-11.2l0.5,0.5c-5.7,0-20.3-0.1-25.8-0.1l-8.6-0.1
	l0.2-0.2L588.4,179.8L588.4,179.8z M588.4,179.8l-0.2-11.1v-0.2h0.2l17.2-0.2l17.2-0.1h0.5v0.5v11.2v0.5h-0.4h-8.7
	c-5.5-0.1-20.1-0.3-25.8-0.4L588.4,179.8z"/>
<rect x="549.9" y="168.7" class="st0" width="34.5" height="11.2"/>
<rect x="24.7" y="341.2" class="st0" width="34.5" height="11.2"/>
<rect x="24.7" y="-0.1" class="st0" width="34.5" height="11.2"/>
<path class="st0" d="M5.5,25.2c5.7-0.1,20.4-0.3,25.9-0.4H40l-0.5,0.4V14.1l0.5,0.5c-5.7,0-20.3-0.1-25.8-0.2l-8.6-0.1l0.2-0.2
	L5.5,25.2L5.5,25.2z M5.5,25.2L5.3,14v-0.2h0.2l17.2-0.2L40,13.6h0.5v0.5v11.2v0.4H40h-8.8C25.8,25.6,11.2,25.4,5.5,25.2L5.5,25.2z"
	/>
<path class="st0" d="M608.6,11.1c5.7-0.1,20.4-0.3,25.9-0.4h8.5l-0.5,0.5V0l0.5,0.5c-5.7,0-20.3-0.1-25.8-0.2l-8.6-0.1l0.2-0.2
	L608.6,11.1L608.6,11.1z M608.6,11.1L608.3,0v-0.3h0.2l17.2-0.2L643-0.6h0.5V0v11.2v0.5h-0.5h-8.7C628.9,11.5,614.3,11.3,608.6,11.1
	L608.6,11.1z"/>
<rect x="256" y="37.1" class="st0" width="34.5" height="11.2"/>
<path class="st0" d="M271.3,23c-5.7,0.1-20.4,0.3-25.9,0.4l-8.5,0.1l0.5-0.5v11.2l-0.5-0.5c5.7,0,20.3,0.1,25.9,0.2l8.6,0.1
	l-0.2,0.2L271.3,23z M271.3,23l0.2,11.2v0.2h-0.2c-4.3,0.1-12.9,0.2-17.2,0.2l-17.3,0h-0.5v-0.5V23v-0.5h0.5h8.7
	C250.9,22.6,265.5,22.9,271.3,23L271.3,23z"/>
<rect x="31.8" y="131.8" class="st0" width="54.4" height="65.9"/>
<rect x="38.1" y="137.8" class="st1" width="41.9" height="53.9"/>
<rect x="38.1" y="137.8" class="st2" width="1.6" height="53.9"/>
<rect x="86.2" y="131.8" class="st2" width="1.6" height="65.9"/>
<rect x="52.1" y="150.3" class="st3" width="9.9" height="29.5"/>
<path class="st0" d="M74.7,160.2H47.3v-15.4h27.4L74.7,160.2z M48.3,159.2h25.4v-13.4H48.3L48.3,159.2z"/>
<rect y="50.4" class="st0" width="54.4" height="65.9"/>
<rect x="6.2" y="56.4" class="st1" width="41.9" height="53.9"/>
<rect x="6.2" y="56.4" class="st2" width="1.6" height="53.9"/>
<rect x="54.4" y="50.4" class="st2" width="1.6" height="65.9"/>
<rect x="23.1" y="70.3" class="st0" width="8.5" height="21.4"/>
<path class="st3" d="M41,98.6H17.3V82.9H41V98.6z M18.2,97.6H40V83.9H18.3L18.2,97.6z"/>
<polygon class="st4" points="0,398.3 81.1,398.1 162.1,398 324.3,397.8 486.4,398 567.5,398.1 648.6,398.3 567.5,398.5 486.4,398.6 
	324.3,398.8 162.1,398.6 81.1,398.5 "/>
<path class="st5" d="M607.9,312.9c-1.1,4.1-1.9,8.3-2.2,12.5c0.1,0.2,0.1,1,0,0.8c0,0.7-1.1,0.6-1.1-0.1c0-0.4,0-0.9,0-1.3
	c-2.4-3-6-5-8.9-7.6c-2.3-2.1-4-4.7-4.9-7.7c-2.4-8.2-0.2-16.9-3-25.1c-2.5-7-6.9-13.2-10.6-19.6c-4-6.8-6.9-13.9-7.2-21.8
	c-0.2-6.1,0.5-14.1,5.1-18.7c4.9-4.8,11-1.2,14.7,3.1c10.9,12.5,15.9,28.2,17.9,44.3c1.1,8.9,2.3,17.9,2,26.9
	C609.7,303.4,609,308.2,607.9,312.9z"/>
<path class="st4" d="M605.7,328.7c0.6-8.4,0.5-16.9-0.3-25.3c0,0,0,0,0-0.1c0.1-6.8,0.7-13.6,0.4-20.5c-0.3-7.4-1.3-14.8-3-22
	c0-0.1-0.2-0.1-0.1,0c1.3,7.1,2.1,14.3,2.4,21.5c0.1,3.9,0.1,7.7-0.1,11.6c-0.1,1.2-0.2,2.5-0.3,3.8l0,0
	c-2.8-19.2-9.8-37.5-20.3-53.8c-0.1-0.2-0.5,0-0.4,0.2c7.5,12.4,13.1,25.8,16.5,39.9c-5.2-9.7-13.1-17.6-19-26.9c0,0-0.1,0-0.1,0
	c5.3,10.4,14,18.5,19.5,28.7c1,4.2,1.8,8.4,2.3,12.6c0.8,5.8,1.2,11.6,1.3,17.5c-3.2-6-6.5-11.6-9.1-17.9c-0.1-0.2-0.3,0-0.3,0.1
	c2.2,6.5,5.2,13.6,9.4,19.2c0,4.1-0.1,8.3-0.3,12.4c-0.7,11-2.5,21.9-3.4,32.9c0,0.1,0.1,0.3,0.2,0.3s0.3-0.1,0.3-0.2
	C603.6,351.4,605,340.1,605.7,328.7z"/>
<path class="st4" d="M594,243.6C594,243.6,594,243.5,594,243.6c-0.1-0.1-0.1,0-0.1,0c0,0,0,0,0,0c2,5.6,3.2,11.2,4.6,16.9
	c0,0.1,0.1,0.2,0.2,0.2c0.1,0,0.2-0.1,0.2-0.2l0,0C598.3,254.7,596.3,248.9,594,243.6z"/>
<path class="st5" d="M645.2,267c-1.3,3.3-2.9,6.4-4.6,9.5c-3.6,6.6-7.4,12.6-8.1,20.3c-0.3,3.4-0.4,6.9-1.5,10.2
	c-1,2.8-2.3,5.5-4.1,8c-3.9,5.7-8.8,10.7-12.5,16.6c-3.8,6.2-6.6,12.9-8.3,20c-0.1,0.4-0.7,0.3-0.6-0.1c0,0,0-0.1,0-0.1
	c0,0,0-0.1,0-0.1c-0.6-16.5,0.7-33,5.8-48.8c2.2-6.9,4.9-13.7,8-20.3c2.7-5.7,6-11.2,10.8-15.5c3.1-2.8,9.7-8,14.1-5.2
	C646.2,262.8,646,264.9,645.2,267z"/>
<path class="st4" d="M628.6,304.2c-2.9,4.8-6.1,9.4-9.6,13.8c-1.6,2.1-3.2,4.1-4.8,6.2c-0.8,1-1.6,2-2.3,3c0.4-1.7,0.9-3.5,1.3-5.2
	c2.1-8.3,4.2-16.7,7.3-24.7c3.2-7.7,7.1-15.2,11.4-22.4c0.1-0.2-0.2-0.3-0.3-0.1c-3.5,5.7-7,11.4-9.9,17.5c-1.6,3.4-3,6.8-4.2,10.3
	c1.3-7.5,3.2-14.9,5.6-22.1c0-0.1-0.1-0.1-0.1,0c-3.1,7.3-5.1,15.1-5.8,23l0,0c-0.7,2.1-1.4,4.3-2,6.5c-2.6,9.2-4.9,18.5-7,27.8
	c0-6.1,0.5-12.3,1.6-18.3c0-0.1-0.1-0.1-0.1-0.1c-0.1,0-0.1,0-0.1,0.1c-1.6,6.3-2.1,12.8-1.6,19.3c-0.8,3.5-1.6,7.1-2.3,10.7
	c-1.6,7.6-3.6,15.3-4.5,23c0,0.1,0.1,0.2,0.2,0.2c0.1,0,0.1,0,0.1-0.1c1.1-4.2,1.8-8.5,2.7-12.7c0.9-4.2,1.9-8.4,2.9-12.6
	c1.4-6.1,2.9-12.2,4.5-18.3c1-2.2,3-4.2,4.5-6.1c1.6-2.1,3.2-4.1,4.8-6.2C623.8,312.7,626.4,308.6,628.6,304.2
	C628.8,304.2,628.7,304.2,628.6,304.2z"/>
<path class="st4" d="M629.3,297.2c-3.6,4.6-6.8,9.6-9.4,14.9c0,0.1,0.1,0.1,0.1,0.1c3.2-4.9,6.2-9.9,9.4-14.8
	C629.5,297.2,629.4,297.1,629.3,297.2z"/>
<path class="st5" d="M559.3,282.5c2.1,3.7,4.6,8.1,3.7,12.5c-0.6,2.8-2.6,5-3,7.9c-0.8,6.3,5.4,10.4,10,13.4
	c11.3,7.4,26.8,14,28.8,29.2c0.1,0.5,1,0.4,0.9-0.1c0,0,0-0.1,0-0.1c0,0,0,0,0-0.1c1.5-7.6,1.4-15.5-0.2-23.1
	c-1.7-7.8-5.1-14.8-9.1-21.7c-6.8-11.6-14-23.5-24.3-32.4c-2.8-2.5-8.7-6.9-10.9-1.3C553,272.2,556.7,278.1,559.3,282.5z"/>
<path class="st4" d="M569.7,307.1c7.5,8.1,19.4,12.6,25.8,21.7c-3.6-13.8-10.4-26.6-19.9-37.3c-0.1-0.1-0.1-0.3,0-0.4s0.3-0.1,0.4,0
	c6.9,6.7,12.4,14.7,16.2,23.6c-1.8-6.2-4.1-12.1-7-17.9c-0.1-0.1,0-0.2,0.1-0.3c0.1-0.1,0.2,0,0.3,0.1c3.6,6.2,6.1,13,7.5,20.1
	c8.5,20.6,9.3,44.7,7.5,66.3c0,0.1-0.2,0.2-0.3,0.2c-0.1,0-0.2-0.1-0.2-0.2c0.5-17.1,0.2-34.5-3.9-51.1c-0.1-0.4-0.2-0.7-0.3-1
	c-7-9.8-18.9-14.3-26.5-23.6C569.4,307.2,569.6,307,569.7,307.1z"/>
<path class="st4" d="M567.9,300.2c3.9,3.6,7.8,7.3,11.7,10.9c0,0,0,0.1-0.1,0.1c-4.5-3-8.5-6.6-11.9-10.7c-0.1-0.1-0.1-0.2,0-0.2
	C567.8,300.1,567.9,300.1,567.9,300.2z"/>
<path class="st4" d="M567.3,284.5c3.5,5.7,7.4,11.1,11.8,16.2c0,0,0,0.1,0,0.1c0,0-0.1,0-0.1,0c0,0,0,0,0,0
	c-4.9-4.6-8.9-10.1-11.9-16.1c0-0.1,0-0.1,0-0.2C567.2,284.5,567.2,284.5,567.3,284.5z"/>
<polygon class="st6" points="585,398.3 619.4,398.3 614.8,352 590.3,352 "/>
<polygon class="st4" points="589.4,359.5 615.6,359.5 614.8,352 590.3,352 "/>
<rect x="586.1" y="346.8" class="st6" width="32.3" height="7.4"/>
<rect x="17.9" y="376" class="st2" width="612.7" height="22.3"/>
<rect x="72.2" y="38.8" class="st3" width="504.1" height="337.2"/>
<rect x="75.9" y="42.9" class="st4" width="496.8" height="329"/>
<rect x="97.9" y="64" class="st1" width="452.8" height="286.7"/>
<rect x="97.9" y="64" class="st6" width="452.8" height="11"/>
<path class="st2" d="M108.3,69.5c0,1.2-0.9,2.1-2.1,2.1s-2.1-0.9-2.1-2.1c0-1.2,0.9-2.1,2.1-2.1l0,0
	C107.3,67.5,108.3,68.4,108.3,69.5z"/>
<path class="st1" d="M116.8,69.5c0,1.2-0.9,2.1-2.1,2.1c-1.2,0-2.1-0.9-2.1-2.1c0-1.2,0.9-2.1,2.1-2.1c0,0,0,0,0,0
	C115.9,67.5,116.8,68.4,116.8,69.5C116.8,69.5,116.8,69.5,116.8,69.5z"/>
<path class="st5" d="M125.3,69.5c0,1.2-0.9,2.1-2.1,2.1s-2.1-0.9-2.1-2.1c0-1.2,0.9-2.1,2.1-2.1l0,0
	C124.3,67.5,125.3,68.4,125.3,69.5z"/>
<polygon class="st2" points="242.5,281.9 240.2,281.9 240.2,279.5 240.9,279.5 240.9,281.2 242.5,281.2 "/>
<path class="st2" d="M402,281.9h-4v-0.8h4V281.9z M394,281.9h-4v-0.8h4V281.9z M386,281.9h-4v-0.8h4V281.9z M378,281.9h-4v-0.8h4
	V281.9z M370,281.9h-4v-0.8h4V281.9z M362,281.9h-4v-0.8h4V281.9z M354,281.9h-4v-0.8h4V281.9z M346,281.9h-4v-0.8h4V281.9z
	 M338,281.9h-4v-0.8h4V281.9z M330,281.9h-4v-0.8h4V281.9z M322,281.9h-4v-0.8h4V281.9z M314,281.9h-4v-0.8h4V281.9z M306,281.9h-4
	v-0.8h4V281.9z M298,281.9h-4v-0.8h4V281.9z M290,281.9h-4v-0.8h4V281.9z M282,281.9h-4v-0.8h4V281.9z M274,281.9h-4v-0.8h4V281.9z
	 M266,281.9h-4v-0.8h4V281.9z M258,281.9h-4v-0.8h4V281.9z M250,281.9h-4v-0.8h4V281.9z"/>
<polygon class="st2" points="408.4,281.9 406,281.9 406,281.2 407.6,281.2 407.6,279.5 408.4,279.5 "/>
<path class="st2" d="M408.4,275.5h-0.8v-4h0.8V275.5z M408.4,267.5h-0.8v-4h0.8V267.5z M408.4,259.5h-0.8v-4h0.8V259.5z
	 M408.4,251.5h-0.8v-4h0.8V251.5z M408.4,243.5h-0.8v-4h0.8V243.5z M408.4,235.5h-0.8v-4h0.8V235.5z M408.4,227.5h-0.8v-4h0.8V227.5
	z M408.4,219.5h-0.8v-4h0.8V219.5z M408.4,211.5h-0.8v-4h0.8V211.5z M408.4,203.5h-0.8v-4h0.8V203.5z M408.4,195.5h-0.8v-4h0.8
	V195.5z M408.4,187.5h-0.8v-4h0.8V187.5z M408.4,179.5h-0.8v-4h0.8V179.5z M408.4,171.5h-0.8v-4h0.8V171.5z M408.4,163.5h-0.8v-4
	h0.8V163.5z M408.4,155.5h-0.8v-4h0.8V155.5z M408.4,147.5h-0.8v-4h0.8V147.5z M408.4,139.5h-0.8v-4h0.8V139.5z M408.4,131.5h-0.8
	v-4h0.8V131.5z M408.4,123.5h-0.8v-4h0.8V123.5z"/>
<polygon class="st2" points="408.4,116.1 407.6,116.1 407.6,114.4 406,114.4 406,113.7 408.4,113.7 "/>
<path class="st2" d="M402,114.4h-4v-0.7h4V114.4z M394,114.4h-4v-0.7h4V114.4z M386,114.4h-4v-0.7h4V114.4z M378,114.4h-4v-0.7h4
	V114.4z M370,114.4h-4v-0.7h4V114.4z M362,114.4h-4v-0.7h4V114.4z M354,114.4h-4v-0.7h4V114.4z M346,114.4h-4v-0.7h4V114.4z
	 M338,114.4h-4v-0.7h4V114.4z M330,114.4h-4v-0.7h4V114.4z M322,114.4h-4v-0.7h4V114.4z M314,114.4h-4v-0.7h4V114.4z M306,114.4h-4
	v-0.7h4V114.4z M298,114.4h-4v-0.7h4V114.4z M290,114.4h-4v-0.7h4V114.4z M282,114.4h-4v-0.7h4V114.4z M274,114.4h-4v-0.7h4V114.4z
	 M266,114.4h-4v-0.7h4V114.4z M258,114.4h-4v-0.7h4V114.4z M250,114.4h-4v-0.7h4V114.4z"/>
<polygon class="st2" points="240.9,116.1 240.2,116.1 240.2,113.7 242.5,113.7 242.5,114.4 240.9,114.4 "/>
<path class="st2" d="M240.9,275.5h-0.8v-4h0.8V275.5z M240.9,267.5h-0.8v-4h0.8V267.5z M240.9,259.5h-0.8v-4h0.8V259.5z
	 M240.9,251.5h-0.8v-4h0.8V251.5z M240.9,243.5h-0.8v-4h0.8V243.5z M240.9,235.5h-0.8v-4h0.8V235.5z M240.9,227.5h-0.8v-4h0.8V227.5
	z M240.9,219.5h-0.8v-4h0.8V219.5z M240.9,211.5h-0.8v-4h0.8V211.5z M240.9,203.5h-0.8v-4h0.8V203.5z M240.9,195.5h-0.8v-4h0.8
	V195.5z M240.9,187.5h-0.8v-4h0.8V187.5z M240.9,179.5h-0.8v-4h0.8V179.5z M240.9,171.5h-0.8v-4h0.8V171.5z M240.9,163.5h-0.8v-4
	h0.8V163.5z M240.9,155.5h-0.8v-4h0.8V155.5z M240.9,147.5h-0.8v-4h0.8V147.5z M240.9,139.5h-0.8v-4h0.8V139.5z M240.9,131.5h-0.8
	v-4h0.8V131.5z M240.9,123.5h-0.8v-4h0.8V123.5z"/>
<polygon class="st5" points="361,238.9 287.6,238.9 287.6,216.3 292.3,216.3 292.3,234.2 356.2,234.2 356.2,217.5 361,217.5 "/>
<path class="st5" d="M365.8,206.9h-87.9v-0.1c-9-1.2-15.3-9.4-14.1-18.3c1.1-8.1,8-14.2,16.2-14.2c0.5,0,1.1,0,1.6,0.1
	c1.1-9.6,9.3-16.8,18.9-16.8c2.6,0,5.1,0.5,7.5,1.6c6.5-16.1,24.9-23.8,40.9-17.2c11.2,4.6,18.8,15.2,19.5,27.2
	c10.5,0.9,18.2,10.2,17.2,20.6C384.8,199.8,376,207.5,365.8,206.9L365.8,206.9z M279.5,204.9h86.3c9.4,0.4,17.4-6.8,17.8-16.2
	c0.4-9.4-6.8-17.4-16.2-17.8l0,0l-0.9-0.1V170c-0.5-16.2-14-29-30.3-28.5c-12,0.4-22.6,8-26.7,19.3l-0.4,1.1l-1-0.5
	c-2.4-1.2-5-1.8-7.6-1.8c-9,0-16.4,7-17,16l-0.1,1.1l-1.1-0.2c-0.8-0.1-1.5-0.2-2.3-0.2c-7.9,0-14.3,6.4-14.3,14.4
	c0,7.5,5.8,13.7,13.3,14.3L279.5,204.9z"/>
<rect x="313" y="195.8" class="st5" width="22.5" height="29"/>
<polygon class="st5" points="301.5,195.8 347.1,195.8 324.3,172.3 "/>
<rect x="215.6" y="297.4" class="st0" width="217.4" height="17.7"/>
<rect x="220.7" y="301.5" class="st5" width="126.5" height="9.5"/>
<polygon class="st7" points="234.4,311 227.9,311 220.7,301.5 227.2,301.5 "/>
<polygon class="st7" points="248,311 241.5,311 234.4,301.5 240.8,301.5 "/>
<polygon class="st7" points="261.7,311 255.2,311 248,301.5 254.5,301.5 "/>
<polygon class="st7" points="275.3,311 268.9,311 261.7,301.5 268.1,301.5 "/>
<polygon class="st7" points="289,311 282.5,311 275.3,301.5 281.8,301.5 "/>
<polygon class="st7" points="302.6,311 296.2,311 289,301.5 295.5,301.5 "/>
<polygon class="st7" points="316.3,311 309.8,311 302.6,301.5 309.1,301.5 "/>
<polygon class="st7" points="330,311 323.5,311 316.3,301.5 322.8,301.5 "/>
<polygon class="st7" points="343.6,311 337.1,311 330,301.5 336.4,301.5 "/>
<polygon class="st7" points="347.2,301.5 347.2,306.2 343.6,301.5 "/>
<rect x="423.3" y="119.4" class="st0" width="40.9" height="40.9"/>
<rect x="425.7" y="121.8" class="st3" width="36.1" height="36.1"/>
<path class="st2" d="M529.5,166h-4v-0.8h4V166z M521.5,166h-4v-0.8h4V166z M513.5,166h-4v-0.8h4V166z M505.5,166h-4v-0.8h4V166z
	 M497.5,166h-4v-0.8h4V166z M489.5,166h-4v-0.8h4V166z M481.5,166h-4v-0.8h4V166z M473.5,166h-4v-0.8h4V166z M465.5,166h-4v-0.8h4
	V166z M457.5,166h-4v-0.8h4V166z M449.5,166h-4v-0.8h4V166z M441.5,166h-4v-0.8h4V166z M433.5,166h-4v-0.8h4V166z M425.5,166h-4
	v-0.8h4V166z M418.4,165.1h-0.8v-4h0.8V165.1z M529.9,163.4h-0.8v-4h0.8V163.4z M418.4,157.1h-0.8v-4h0.8V157.1z M529.9,155.4h-0.8
	v-4h0.8V155.4z M418.4,149.1h-0.8v-4h0.8V149.1z M529.9,147.4h-0.8v-4h0.8V147.4z M418.4,141.1h-0.8v-4h0.8V141.1z M529.9,139.4
	h-0.8v-4h0.8V139.4z M418.4,133.1h-0.8v-4h0.8V133.1z M529.9,131.4h-0.8v-4h0.8V131.4z M418.4,125.1h-0.8v-4h0.8V125.1z
	 M529.9,123.4h-0.8v-4h0.8V123.4z M418.4,117.1h-0.8v-3.4h1.3v0.8h-0.5V117.1z M529.9,115.4h-0.8v-1h-2.2v-0.7h3L529.9,115.4z
	 M522.9,114.4h-4v-0.7h4V114.4z M514.9,114.4h-4v-0.7h4V114.4z M506.9,114.4h-4v-0.7h4V114.4z M498.9,114.4h-4v-0.7h4V114.4z
	 M490.9,114.4h-4v-0.7h4V114.4z M482.9,114.4h-4v-0.7h4V114.4z M474.9,114.4h-4v-0.7h4V114.4z M466.9,114.4h-4v-0.7h4V114.4z
	 M458.9,114.4h-4v-0.7h4V114.4z M450.9,114.4h-4v-0.7h4V114.4z M442.9,114.4h-4v-0.7h4V114.4z M434.9,114.4h-4v-0.7h4V114.4z
	 M426.9,114.4h-4v-0.7h4V114.4z"/>
<rect x="423.3" y="177.4" class="st0" width="40.9" height="40.9"/>
<rect x="425.7" y="179.8" class="st3" width="36.1" height="36.1"/>
<path class="st2" d="M529.5,223.9h-4v-0.8h4V223.9z M521.5,223.9h-4v-0.8h4V223.9z M513.5,223.9h-4v-0.8h4V223.9z M505.5,223.9h-4
	v-0.8h4V223.9z M497.5,223.9h-4v-0.8h4V223.9z M489.5,223.9h-4v-0.8h4V223.9z M481.5,223.9h-4v-0.8h4V223.9z M473.5,223.9h-4v-0.8h4
	V223.9z M465.5,223.9h-4v-0.8h4V223.9z M457.5,223.9h-4v-0.8h4V223.9z M449.5,223.9h-4v-0.8h4V223.9z M441.5,223.9h-4v-0.8h4V223.9z
	 M433.5,223.9h-4v-0.8h4V223.9z M425.5,223.9h-4v-0.8h4V223.9z M418.4,223.1h-0.8v-4h0.8V223.1z M529.9,221.4h-0.8v-4h0.8V221.4z
	 M418.4,215.1h-0.8v-4h0.8V215.1z M529.9,213.4h-0.8v-4h0.8V213.4z M418.4,207.1h-0.8v-4h0.8V207.1z M529.9,205.4h-0.8v-4h0.8V205.4
	z M418.4,199.1h-0.8v-4h0.8V199.1z M529.9,197.4h-0.8v-4h0.8V197.4z M418.4,191.1h-0.8v-4h0.8V191.1z M529.9,189.4h-0.8v-4h0.8
	V189.4z M418.4,183.1h-0.8v-4h0.8V183.1z M529.9,181.4h-0.8v-4h0.8V181.4z M418.4,175.1h-0.8v-3.5h1.3v0.8h-0.5V175.1z M529.9,173.4
	h-0.8v-1h-2.2v-0.8h3L529.9,173.4z M522.9,172.4h-4v-0.8h4V172.4z M514.9,172.4h-4v-0.8h4V172.4z M506.9,172.4h-4v-0.8h4V172.4z
	 M498.9,172.4h-4v-0.8h4V172.4z M490.9,172.4h-4v-0.8h4V172.4z M482.9,172.4h-4v-0.8h4V172.4z M474.9,172.4h-4v-0.8h4V172.4z
	 M466.9,172.4h-4v-0.8h4V172.4z M458.9,172.4h-4v-0.8h4V172.4z M450.9,172.4h-4v-0.8h4V172.4z M442.9,172.4h-4v-0.8h4V172.4z
	 M434.9,172.4h-4v-0.8h4V172.4z M426.9,172.4h-4v-0.8h4V172.4z"/>
<rect x="423.3" y="235.3" class="st0" width="40.9" height="40.9"/>
<rect x="425.7" y="237.7" class="st3" width="36.1" height="36.1"/>
<path class="st2" d="M529.5,281.9h-4v-0.8h4V281.9z M521.5,281.9h-4v-0.8h4V281.9z M513.5,281.9h-4v-0.8h4V281.9z M505.5,281.9h-4
	v-0.8h4V281.9z M497.5,281.9h-4v-0.8h4V281.9z M489.5,281.9h-4v-0.8h4V281.9z M481.5,281.9h-4v-0.8h4V281.9z M473.5,281.9h-4v-0.8h4
	V281.9z M465.5,281.9h-4v-0.8h4V281.9z M457.5,281.9h-4v-0.8h4V281.9z M449.5,281.9h-4v-0.8h4V281.9z M441.5,281.9h-4v-0.8h4V281.9z
	 M433.5,281.9h-4v-0.8h4V281.9z M425.5,281.9h-4v-0.8h4V281.9z M418.4,281.1h-0.8v-4h0.8V281.1z M529.9,279.3h-0.8v-4h0.8V279.3z
	 M418.4,273.1h-0.8v-4h0.8V273.1z M529.9,271.3h-0.8v-4h0.8V271.3z M418.4,265.1h-0.8v-4h0.8V265.1z M529.9,263.3h-0.8v-4h0.8V263.3
	z M418.4,257.1h-0.8v-4h0.8V257.1z M529.9,255.3h-0.8v-4h0.8V255.3z M418.4,249.1h-0.8v-4h0.8V249.1z M529.9,247.3h-0.8v-4h0.8
	V247.3z M418.4,241.1h-0.8v-4h0.8V241.1z M529.9,239.3h-0.8v-4h0.8V239.3z M418.4,233.1h-0.8v-3.5h1.3v0.8h-0.5V233.1z M529.9,231.3
	h-0.8v-1h-2.2v-0.8h3L529.9,231.3z M522.9,230.3h-4v-0.8h4V230.3z M514.9,230.3h-4v-0.8h4V230.3z M506.9,230.3h-4v-0.8h4V230.3z
	 M498.9,230.3h-4v-0.8h4V230.3z M490.9,230.3h-4v-0.8h4V230.3z M482.9,230.3h-4v-0.8h4V230.3z M474.9,230.3h-4v-0.8h4V230.3z
	 M466.9,230.3h-4v-0.8h4V230.3z M458.9,230.3h-4v-0.8h4V230.3z M450.9,230.3h-4v-0.8h4V230.3z M442.9,230.3h-4v-0.8h4V230.3z
	 M434.9,230.3h-4v-0.8h4V230.3z M426.9,230.3h-4v-0.8h4V230.3z"/>
<rect x="124.4" y="119.4" class="st0" width="40.9" height="40.9"/>
<rect x="126.8" y="121.8" class="st3" width="36.1" height="36.1"/>
<path class="st2" d="M230.6,166h-4v-0.8h4V166z M222.6,166h-4v-0.8h4V166z M214.6,166h-4v-0.8h4V166z M206.6,166h-4v-0.8h4V166z
	 M198.6,166h-4v-0.8h4V166z M190.6,166h-4v-0.8h4V166z M182.6,166h-4v-0.8h4V166z M174.6,166h-4v-0.8h4V166z M166.6,166h-4v-0.8h4
	V166z M158.6,166h-4v-0.8h4V166z M150.6,166h-4v-0.8h4V166z M142.6,166h-4v-0.8h4V166z M134.6,166h-4v-0.8h4V166z M126.6,166h-4
	v-0.8h4V166z M119.4,165.1h-0.8v-4h0.8V165.1z M230.9,163.4h-0.8v-4h0.8V163.4z M119.4,157.1h-0.8v-4h0.8V157.1z M230.9,155.4h-0.8
	v-4h0.8V155.4z M119.4,149.1h-0.8v-4h0.8V149.1z M230.9,147.4h-0.8v-4h0.8V147.4z M119.4,141.1h-0.8v-4h0.8V141.1z M230.9,139.4
	h-0.8v-4h0.8V139.4z M119.4,133.1h-0.8v-4h0.8V133.1z M230.9,131.4h-0.8v-4h0.8V131.4z M119.4,125.1h-0.8v-4h0.8V125.1z
	 M230.9,123.4h-0.8v-4h0.8V123.4z M119.4,117.1h-0.8v-3.4h1.3v0.8h-0.5V117.1z M230.9,115.4h-0.8v-1H228v-0.7h3L230.9,115.4z
	 M223.9,114.4h-4v-0.7h4V114.4z M215.9,114.4h-4v-0.7h4V114.4z M207.9,114.4h-4v-0.7h4V114.4z M199.9,114.4h-4v-0.7h4V114.4z
	 M191.9,114.4h-4v-0.7h4V114.4z M183.9,114.4h-4v-0.7h4V114.4z M175.9,114.4h-4v-0.7h4V114.4z M167.9,114.4h-4v-0.7h4V114.4z
	 M159.9,114.4h-4v-0.7h4V114.4z M151.9,114.4h-4v-0.7h4V114.4z M143.9,114.4h-4v-0.7h4V114.4z M135.9,114.4h-4v-0.7h4V114.4z
	 M127.9,114.4h-4v-0.7h4V114.4z"/>
<rect x="124.4" y="177.4" class="st0" width="40.9" height="40.9"/>
<rect x="126.8" y="179.8" class="st3" width="36.1" height="36.1"/>
<path class="st2" d="M230.6,223.9h-4v-0.8h4V223.9z M222.6,223.9h-4v-0.8h4V223.9z M214.6,223.9h-4v-0.8h4V223.9z M206.6,223.9h-4
	v-0.8h4V223.9z M198.6,223.9h-4v-0.8h4V223.9z M190.6,223.9h-4v-0.8h4V223.9z M182.6,223.9h-4v-0.8h4V223.9z M174.6,223.9h-4v-0.8h4
	V223.9z M166.6,223.9h-4v-0.8h4V223.9z M158.6,223.9h-4v-0.8h4V223.9z M150.6,223.9h-4v-0.8h4V223.9z M142.6,223.9h-4v-0.8h4V223.9z
	 M134.6,223.9h-4v-0.8h4V223.9z M126.6,223.9h-4v-0.8h4V223.9z M119.4,223.1h-0.8v-4h0.8V223.1z M230.9,221.4h-0.8v-4h0.8V221.4z
	 M119.4,215.1h-0.8v-4h0.8V215.1z M230.9,213.4h-0.8v-4h0.8V213.4z M119.4,207.1h-0.8v-4h0.8V207.1z M230.9,205.4h-0.8v-4h0.8V205.4
	z M119.4,199.1h-0.8v-4h0.8V199.1z M230.9,197.4h-0.8v-4h0.8V197.4z M119.4,191.1h-0.8v-4h0.8V191.1z M230.9,189.4h-0.8v-4h0.8
	V189.4z M119.4,183.1h-0.8v-4h0.8V183.1z M230.9,181.4h-0.8v-4h0.8V181.4z M119.4,175.1h-0.8v-3.5h1.3v0.8h-0.5V175.1z M230.9,173.4
	h-0.8v-1H228v-0.8h3L230.9,173.4z M223.9,172.4h-4v-0.8h4V172.4z M215.9,172.4h-4v-0.8h4V172.4z M207.9,172.4h-4v-0.8h4V172.4z
	 M199.9,172.4h-4v-0.8h4V172.4z M191.9,172.4h-4v-0.8h4V172.4z M183.9,172.4h-4v-0.8h4V172.4z M175.9,172.4h-4v-0.8h4V172.4z
	 M167.9,172.4h-4v-0.8h4V172.4z M159.9,172.4h-4v-0.8h4V172.4z M151.9,172.4h-4v-0.8h4V172.4z M143.9,172.4h-4v-0.8h4V172.4z
	 M135.9,172.4h-4v-0.8h4V172.4z M127.9,172.4h-4v-0.8h4V172.4z"/>
<rect x="124.4" y="235.3" class="st0" width="40.9" height="40.9"/>
<rect x="126.8" y="237.7" class="st3" width="36.1" height="36.1"/>
<path class="st2" d="M230.6,281.9h-4v-0.8h4V281.9z M222.6,281.9h-4v-0.8h4V281.9z M214.6,281.9h-4v-0.8h4V281.9z M206.6,281.9h-4
	v-0.8h4V281.9z M198.6,281.9h-4v-0.8h4V281.9z M190.6,281.9h-4v-0.8h4V281.9z M182.6,281.9h-4v-0.8h4V281.9z M174.6,281.9h-4v-0.8h4
	V281.9z M166.6,281.9h-4v-0.8h4V281.9z M158.6,281.9h-4v-0.8h4V281.9z M150.6,281.9h-4v-0.8h4V281.9z M142.6,281.9h-4v-0.8h4V281.9z
	 M134.6,281.9h-4v-0.8h4V281.9z M126.6,281.9h-4v-0.8h4V281.9z M119.4,281.1h-0.8v-4h0.8V281.1z M230.9,279.3h-0.8v-4h0.8V279.3z
	 M119.4,273.1h-0.8v-4h0.8V273.1z M230.9,271.3h-0.8v-4h0.8V271.3z M119.4,265.1h-0.8v-4h0.8V265.1z M230.9,263.3h-0.8v-4h0.8V263.3
	z M119.4,257.1h-0.8v-4h0.8V257.1z M230.9,255.3h-0.8v-4h0.8V255.3z M119.4,249.1h-0.8v-4h0.8V249.1z M230.9,247.3h-0.8v-4h0.8
	V247.3z M119.4,241.1h-0.8v-4h0.8V241.1z M230.9,239.3h-0.8v-4h0.8V239.3z M119.4,233.1h-0.8v-3.5h1.3v0.8h-0.5V233.1z M230.9,231.3
	h-0.8v-1H228v-0.8h3L230.9,231.3z M223.9,230.3h-4v-0.8h4V230.3z M215.9,230.3h-4v-0.8h4V230.3z M207.9,230.3h-4v-0.8h4V230.3z
	 M199.9,230.3h-4v-0.8h4V230.3z M191.9,230.3h-4v-0.8h4V230.3z M183.9,230.3h-4v-0.8h4V230.3z M175.9,230.3h-4v-0.8h4V230.3z
	 M167.9,230.3h-4v-0.8h4V230.3z M159.9,230.3h-4v-0.8h4V230.3z M151.9,230.3h-4v-0.8h4V230.3z M143.9,230.3h-4v-0.8h4V230.3z
	 M135.9,230.3h-4v-0.8h4V230.3z M127.9,230.3h-4v-0.8h4V230.3z"/>
<g class="st8">
	<path d="M436.5,140.6l2.3,0.7c-0.2,0.6-0.4,1.2-0.7,1.6c-0.3,0.4-0.7,0.7-1.2,1c-0.5,0.2-1.1,0.3-1.9,0.3c-0.9,0-1.7-0.1-2.2-0.4
		c-0.6-0.3-1.1-0.7-1.5-1.4c-0.4-0.7-0.6-1.5-0.6-2.6c0-1.4,0.4-2.5,1.1-3.2c0.7-0.7,1.8-1.1,3.1-1.1c1.1,0,1.9,0.2,2.5,0.6
		c0.6,0.4,1.1,1.1,1.3,2l-2.3,0.5c-0.1-0.3-0.2-0.4-0.3-0.6c-0.1-0.2-0.3-0.4-0.5-0.5c-0.2-0.1-0.4-0.2-0.7-0.2
		c-0.6,0-1,0.2-1.3,0.7c-0.2,0.4-0.4,0.9-0.4,1.7c0,0.9,0.1,1.6,0.4,1.9c0.3,0.3,0.7,0.5,1.2,0.5c0.5,0,0.9-0.1,1.1-0.4
		C436.3,141.5,436.4,141.1,436.5,140.6z"/>
	<path d="M439.6,141.3l2.5-0.2c0.1,0.4,0.2,0.7,0.3,0.9c0.3,0.3,0.6,0.5,1.1,0.5c0.4,0,0.7-0.1,0.9-0.3c0.2-0.2,0.3-0.4,0.3-0.6
		c0-0.2-0.1-0.4-0.3-0.6c-0.2-0.2-0.6-0.3-1.3-0.5c-1.1-0.3-1.9-0.6-2.4-1c-0.5-0.4-0.7-1-0.7-1.6c0-0.4,0.1-0.8,0.4-1.2
		c0.2-0.4,0.6-0.7,1.1-0.9c0.5-0.2,1.2-0.3,2.1-0.3c1.1,0,1.9,0.2,2.4,0.6c0.6,0.4,0.9,1,1,1.9l-2.4,0.1c-0.1-0.4-0.2-0.7-0.4-0.8
		c-0.2-0.2-0.5-0.3-0.9-0.3c-0.3,0-0.5,0.1-0.7,0.2c-0.2,0.1-0.2,0.3-0.2,0.5c0,0.1,0.1,0.3,0.2,0.4c0.1,0.1,0.4,0.2,0.9,0.3
		c1.1,0.2,1.9,0.5,2.4,0.7c0.5,0.2,0.8,0.6,1.1,0.9c0.2,0.4,0.3,0.8,0.3,1.2c0,0.5-0.1,1-0.4,1.5c-0.3,0.5-0.7,0.8-1.2,1
		c-0.5,0.2-1.2,0.4-2,0.4c-1.4,0-2.4-0.3-3-0.8C440,142.8,439.7,142.1,439.6,141.3z"/>
	<path d="M447.7,135.6h2.7l1.9,6l1.9-6h2.6l-3.1,8.4h-2.8L447.7,135.6z"/>
</g>
<g class="st8">
	<path d="M436.5,198.6l2.3,0.7c-0.2,0.6-0.4,1.2-0.7,1.6c-0.3,0.4-0.7,0.7-1.2,1c-0.5,0.2-1.1,0.3-1.9,0.3c-0.9,0-1.7-0.1-2.2-0.4
		c-0.6-0.3-1.1-0.7-1.5-1.4c-0.4-0.7-0.6-1.5-0.6-2.6c0-1.4,0.4-2.5,1.1-3.2c0.7-0.7,1.8-1.1,3.1-1.1c1.1,0,1.9,0.2,2.5,0.6
		c0.6,0.4,1.1,1.1,1.3,2l-2.3,0.5c-0.1-0.3-0.2-0.4-0.3-0.6c-0.1-0.2-0.3-0.4-0.5-0.5c-0.2-0.1-0.4-0.2-0.7-0.2
		c-0.6,0-1,0.2-1.3,0.7c-0.2,0.4-0.4,0.9-0.4,1.7c0,0.9,0.1,1.6,0.4,1.9c0.3,0.3,0.7,0.5,1.2,0.5c0.5,0,0.9-0.1,1.1-0.4
		C436.3,199.5,436.4,199.1,436.5,198.6z"/>
	<path d="M439.6,199.2l2.5-0.2c0.1,0.4,0.2,0.7,0.3,0.9c0.3,0.3,0.6,0.5,1.1,0.5c0.4,0,0.7-0.1,0.9-0.3c0.2-0.2,0.3-0.4,0.3-0.6
		c0-0.2-0.1-0.4-0.3-0.6c-0.2-0.2-0.6-0.3-1.3-0.5c-1.1-0.3-1.9-0.6-2.4-1c-0.5-0.4-0.7-1-0.7-1.6c0-0.4,0.1-0.8,0.4-1.2
		c0.2-0.4,0.6-0.7,1.1-0.9c0.5-0.2,1.2-0.3,2.1-0.3c1.1,0,1.9,0.2,2.4,0.6c0.6,0.4,0.9,1,1,1.9l-2.4,0.1c-0.1-0.4-0.2-0.7-0.4-0.8
		c-0.2-0.2-0.5-0.3-0.9-0.3c-0.3,0-0.5,0.1-0.7,0.2c-0.2,0.1-0.2,0.3-0.2,0.5c0,0.1,0.1,0.3,0.2,0.4c0.1,0.1,0.4,0.2,0.9,0.3
		c1.1,0.2,1.9,0.5,2.4,0.7c0.5,0.2,0.8,0.6,1.1,0.9c0.2,0.4,0.3,0.8,0.3,1.2c0,0.5-0.1,1-0.4,1.5c-0.3,0.5-0.7,0.8-1.2,1
		c-0.5,0.2-1.2,0.4-2,0.4c-1.4,0-2.4-0.3-3-0.8C440,200.8,439.7,200.1,439.6,199.2z"/>
	<path d="M447.7,193.6h2.7l1.9,6l1.9-6h2.6l-3.1,8.4h-2.8L447.7,193.6z"/>
</g>
<g class="st8">
	<path d="M436.5,256.5l2.3,0.7c-0.2,0.6-0.4,1.2-0.7,1.6c-0.3,0.4-0.7,0.7-1.2,1c-0.5,0.2-1.1,0.3-1.9,0.3c-0.9,0-1.7-0.1-2.2-0.4
		c-0.6-0.3-1.1-0.7-1.5-1.4c-0.4-0.7-0.6-1.5-0.6-2.6c0-1.4,0.4-2.5,1.1-3.2c0.7-0.7,1.8-1.1,3.1-1.1c1.1,0,1.9,0.2,2.5,0.6
		c0.6,0.4,1.1,1.1,1.3,2l-2.3,0.5c-0.1-0.3-0.2-0.4-0.3-0.6c-0.1-0.2-0.3-0.4-0.5-0.5c-0.2-0.1-0.4-0.2-0.7-0.2
		c-0.6,0-1,0.2-1.3,0.7c-0.2,0.4-0.4,0.9-0.4,1.7c0,0.9,0.1,1.6,0.4,1.9c0.3,0.3,0.7,0.5,1.2,0.5c0.5,0,0.9-0.1,1.1-0.4
		C436.3,257.4,436.4,257,436.5,256.5z"/>
	<path d="M439.6,257.2l2.5-0.2c0.1,0.4,0.2,0.7,0.3,0.9c0.3,0.3,0.6,0.5,1.1,0.5c0.4,0,0.7-0.1,0.9-0.3c0.2-0.2,0.3-0.4,0.3-0.6
		c0-0.2-0.1-0.4-0.3-0.6c-0.2-0.2-0.6-0.3-1.3-0.5c-1.1-0.3-1.9-0.6-2.4-1c-0.5-0.4-0.7-1-0.7-1.6c0-0.4,0.1-0.8,0.4-1.2
		c0.2-0.4,0.6-0.7,1.1-0.9c0.5-0.2,1.2-0.3,2.1-0.3c1.1,0,1.9,0.2,2.4,0.6c0.6,0.4,0.9,1,1,1.9l-2.4,0.1c-0.1-0.4-0.2-0.7-0.4-0.8
		c-0.2-0.2-0.5-0.3-0.9-0.3c-0.3,0-0.5,0.1-0.7,0.2c-0.2,0.1-0.2,0.3-0.2,0.5c0,0.1,0.1,0.3,0.2,0.4c0.1,0.1,0.4,0.2,0.9,0.3
		c1.1,0.2,1.9,0.5,2.4,0.7c0.5,0.2,0.8,0.6,1.1,0.9c0.2,0.4,0.3,0.8,0.3,1.2c0,0.5-0.1,1-0.4,1.5c-0.3,0.5-0.7,0.8-1.2,1
		c-0.5,0.2-1.2,0.4-2,0.4c-1.4,0-2.4-0.3-3-0.8S439.7,258,439.6,257.2z"/>
	<path d="M447.7,251.5h2.7l1.9,6l1.9-6h2.6l-3.1,8.4h-2.8L447.7,251.5z"/>
</g>
<g class="st8">
	<path d="M137.6,140.6l2.3,0.7c-0.2,0.6-0.4,1.2-0.7,1.6c-0.3,0.4-0.7,0.7-1.2,1c-0.5,0.2-1.1,0.3-1.9,0.3c-0.9,0-1.7-0.1-2.2-0.4
		c-0.6-0.3-1.1-0.7-1.5-1.4c-0.4-0.7-0.6-1.5-0.6-2.6c0-1.4,0.4-2.5,1.1-3.2c0.7-0.7,1.8-1.1,3.1-1.1c1.1,0,1.9,0.2,2.5,0.6
		c0.6,0.4,1.1,1.1,1.3,2l-2.3,0.5c-0.1-0.3-0.2-0.4-0.3-0.6c-0.1-0.2-0.3-0.4-0.5-0.5c-0.2-0.1-0.4-0.2-0.7-0.2
		c-0.6,0-1,0.2-1.3,0.7c-0.2,0.4-0.4,0.9-0.4,1.7c0,0.9,0.1,1.6,0.4,1.9c0.3,0.3,0.7,0.5,1.2,0.5c0.5,0,0.9-0.1,1.1-0.4
		C137.3,141.5,137.5,141.1,137.6,140.6z"/>
	<path d="M140.7,141.3l2.5-0.2c0.1,0.4,0.2,0.7,0.3,0.9c0.3,0.3,0.6,0.5,1.1,0.5c0.4,0,0.7-0.1,0.9-0.3c0.2-0.2,0.3-0.4,0.3-0.6
		c0-0.2-0.1-0.4-0.3-0.6c-0.2-0.2-0.6-0.3-1.3-0.5c-1.1-0.3-1.9-0.6-2.4-1c-0.5-0.4-0.7-1-0.7-1.6c0-0.4,0.1-0.8,0.4-1.2
		c0.2-0.4,0.6-0.7,1.1-0.9c0.5-0.2,1.2-0.3,2.1-0.3c1.1,0,1.9,0.2,2.4,0.6c0.6,0.4,0.9,1,1,1.9l-2.4,0.1c-0.1-0.4-0.2-0.7-0.4-0.8
		c-0.2-0.2-0.5-0.3-0.9-0.3c-0.3,0-0.5,0.1-0.7,0.2c-0.2,0.1-0.2,0.3-0.2,0.5c0,0.1,0.1,0.3,0.2,0.4c0.1,0.1,0.4,0.2,0.9,0.3
		c1.1,0.2,1.9,0.5,2.4,0.7c0.5,0.2,0.8,0.6,1.1,0.9c0.2,0.4,0.3,0.8,0.3,1.2c0,0.5-0.1,1-0.4,1.5c-0.3,0.5-0.7,0.8-1.2,1
		c-0.5,0.2-1.2,0.4-2,0.4c-1.4,0-2.4-0.3-3-0.8C141.1,142.8,140.8,142.1,140.7,141.3z"/>
	<path d="M148.8,135.6h2.7l1.9,6l1.9-6h2.6l-3.1,8.4h-2.8L148.8,135.6z"/>
</g>
<g class="st8">
	<path d="M137.6,198.6l2.3,0.7c-0.2,0.6-0.4,1.2-0.7,1.6c-0.3,0.4-0.7,0.7-1.2,1c-0.5,0.2-1.1,0.3-1.9,0.3c-0.9,0-1.7-0.1-2.2-0.4
		c-0.6-0.3-1.1-0.7-1.5-1.4c-0.4-0.7-0.6-1.5-0.6-2.6c0-1.4,0.4-2.5,1.1-3.2c0.7-0.7,1.8-1.1,3.1-1.1c1.1,0,1.9,0.2,2.5,0.6
		c0.6,0.4,1.1,1.1,1.3,2l-2.3,0.5c-0.1-0.3-0.2-0.4-0.3-0.6c-0.1-0.2-0.3-0.4-0.5-0.5c-0.2-0.1-0.4-0.2-0.7-0.2
		c-0.6,0-1,0.2-1.3,0.7c-0.2,0.4-0.4,0.9-0.4,1.7c0,0.9,0.1,1.6,0.4,1.9c0.3,0.3,0.7,0.5,1.2,0.5c0.5,0,0.9-0.1,1.1-0.4
		C137.3,199.5,137.5,199.1,137.6,198.6z"/>
	<path d="M140.7,199.2l2.5-0.2c0.1,0.4,0.2,0.7,0.3,0.9c0.3,0.3,0.6,0.5,1.1,0.5c0.4,0,0.7-0.1,0.9-0.3c0.2-0.2,0.3-0.4,0.3-0.6
		c0-0.2-0.1-0.4-0.3-0.6c-0.2-0.2-0.6-0.3-1.3-0.5c-1.1-0.3-1.9-0.6-2.4-1c-0.5-0.4-0.7-1-0.7-1.6c0-0.4,0.1-0.8,0.4-1.2
		c0.2-0.4,0.6-0.7,1.1-0.9c0.5-0.2,1.2-0.3,2.1-0.3c1.1,0,1.9,0.2,2.4,0.6c0.6,0.4,0.9,1,1,1.9l-2.4,0.1c-0.1-0.4-0.2-0.7-0.4-0.8
		c-0.2-0.2-0.5-0.3-0.9-0.3c-0.3,0-0.5,0.1-0.7,0.2c-0.2,0.1-0.2,0.3-0.2,0.5c0,0.1,0.1,0.3,0.2,0.4c0.1,0.1,0.4,0.2,0.9,0.3
		c1.1,0.2,1.9,0.5,2.4,0.7c0.5,0.2,0.8,0.6,1.1,0.9c0.2,0.4,0.3,0.8,0.3,1.2c0,0.5-0.1,1-0.4,1.5c-0.3,0.5-0.7,0.8-1.2,1
		c-0.5,0.2-1.2,0.4-2,0.4c-1.4,0-2.4-0.3-3-0.8C141.1,200.8,140.8,200.1,140.7,199.2z"/>
	<path d="M148.8,193.6h2.7l1.9,6l1.9-6h2.6l-3.1,8.4h-2.8L148.8,193.6z"/>
</g>
<g class="st8">
	<path d="M137.6,256.5l2.3,0.7c-0.2,0.6-0.4,1.2-0.7,1.6c-0.3,0.4-0.7,0.7-1.2,1c-0.5,0.2-1.1,0.3-1.9,0.3c-0.9,0-1.7-0.1-2.2-0.4
		c-0.6-0.3-1.1-0.7-1.5-1.4c-0.4-0.7-0.6-1.5-0.6-2.6c0-1.4,0.4-2.5,1.1-3.2c0.7-0.7,1.8-1.1,3.1-1.1c1.1,0,1.9,0.2,2.5,0.6
		c0.6,0.4,1.1,1.1,1.3,2l-2.3,0.5c-0.1-0.3-0.2-0.4-0.3-0.6c-0.1-0.2-0.3-0.4-0.5-0.5c-0.2-0.1-0.4-0.2-0.7-0.2
		c-0.6,0-1,0.2-1.3,0.7c-0.2,0.4-0.4,0.9-0.4,1.7c0,0.9,0.1,1.6,0.4,1.9c0.3,0.3,0.7,0.5,1.2,0.5c0.5,0,0.9-0.1,1.1-0.4
		C137.3,257.4,137.5,257,137.6,256.5z"/>
	<path d="M140.7,257.2l2.5-0.2c0.1,0.4,0.2,0.7,0.3,0.9c0.3,0.3,0.6,0.5,1.1,0.5c0.4,0,0.7-0.1,0.9-0.3c0.2-0.2,0.3-0.4,0.3-0.6
		c0-0.2-0.1-0.4-0.3-0.6c-0.2-0.2-0.6-0.3-1.3-0.5c-1.1-0.3-1.9-0.6-2.4-1c-0.5-0.4-0.7-1-0.7-1.6c0-0.4,0.1-0.8,0.4-1.2
		c0.2-0.4,0.6-0.7,1.1-0.9c0.5-0.2,1.2-0.3,2.1-0.3c1.1,0,1.9,0.2,2.4,0.6c0.6,0.4,0.9,1,1,1.9l-2.4,0.1c-0.1-0.4-0.2-0.7-0.4-0.8
		c-0.2-0.2-0.5-0.3-0.9-0.3c-0.3,0-0.5,0.1-0.7,0.2c-0.2,0.1-0.2,0.3-0.2,0.5c0,0.1,0.1,0.3,0.2,0.4c0.1,0.1,0.4,0.2,0.9,0.3
		c1.1,0.2,1.9,0.5,2.4,0.7c0.5,0.2,0.8,0.6,1.1,0.9c0.2,0.4,0.3,0.8,0.3,1.2c0,0.5-0.1,1-0.4,1.5c-0.3,0.5-0.7,0.8-1.2,1
		c-0.5,0.2-1.2,0.4-2,0.4c-1.4,0-2.4-0.3-3-0.8C141.1,258.7,140.8,258,140.7,257.2z"/>
	<path d="M148.8,251.5h2.7l1.9,6l1.9-6h2.6l-3.1,8.4h-2.8L148.8,251.5z"/>
</g>
<path class="st0" d="M473.5,127.3l1,0.1c-0.1,0.7-0.4,1.3-0.9,1.7s-1,0.6-1.7,0.6c-0.9,0-1.5-0.3-2.1-0.8s-0.8-1.4-0.8-2.4
	c0-0.7,0.1-1.3,0.3-1.8s0.6-0.9,1-1.1s1-0.4,1.5-0.4c0.7,0,1.2,0.2,1.7,0.5s0.7,0.8,0.8,1.5l-1,0.2c-0.1-0.4-0.3-0.7-0.5-0.9
	s-0.5-0.3-0.9-0.3c-0.5,0-1,0.2-1.3,0.6s-0.5,1-0.5,1.8c0,0.8,0.2,1.4,0.5,1.8s0.7,0.6,1.3,0.6c0.4,0,0.8-0.1,1-0.4
	S473.4,127.8,473.5,127.3z"/>
<path class="st0" d="M475,127.7l1-0.2c0.1,0.4,0.2,0.7,0.5,1s0.6,0.3,1.1,0.3c0.5,0,0.8-0.1,1.1-0.3s0.4-0.4,0.4-0.7
	c0-0.2-0.1-0.4-0.3-0.6c-0.1-0.1-0.5-0.2-1.1-0.4c-0.8-0.2-1.3-0.4-1.6-0.5s-0.5-0.3-0.7-0.6s-0.2-0.5-0.2-0.8
	c0-0.3,0.1-0.5,0.2-0.8s0.3-0.4,0.5-0.6c0.2-0.1,0.4-0.2,0.7-0.3s0.6-0.1,0.9-0.1c0.5,0,0.9,0.1,1.3,0.2s0.6,0.3,0.8,0.6
	s0.3,0.6,0.4,1l-1,0.1c0-0.3-0.2-0.6-0.4-0.8s-0.5-0.3-1-0.3c-0.5,0-0.8,0.1-1,0.2s-0.3,0.3-0.3,0.6c0,0.1,0,0.3,0.1,0.4
	c0.1,0.1,0.2,0.2,0.4,0.3c0.1,0,0.4,0.1,0.9,0.3c0.7,0.2,1.3,0.4,1.6,0.5s0.5,0.3,0.7,0.6s0.3,0.5,0.3,0.9c0,0.4-0.1,0.7-0.3,1
	s-0.5,0.6-0.9,0.7s-0.8,0.3-1.3,0.3c-0.8,0-1.4-0.2-1.8-0.5S475.1,128.3,475,127.7z"/>
<path class="st0" d="M483.2,129.5l-2.4-6.2h1.1l1.3,3.7c0.1,0.4,0.3,0.8,0.4,1.3c0.1-0.3,0.2-0.7,0.4-1.2l1.4-3.8h1.1l-2.4,6.2
	H483.2z"/>
<path class="st0" d="M486.4,131.9v-0.8h7v0.8H486.4z"/>
<path class="st0" d="M497.2,129.5v-2.1h-3.7v-1l3.9-5.6h0.9v5.6h1.2v1h-1.2v2.1H497.2z M497.2,126.5v-3.9l-2.7,3.9H497.2z"/>
<path class="st0" d="M473.5,183.5l1,0.1c-0.1,0.7-0.4,1.3-0.9,1.7s-1,0.6-1.7,0.6c-0.9,0-1.5-0.3-2.1-0.8s-0.8-1.4-0.8-2.4
	c0-0.7,0.1-1.3,0.3-1.8s0.6-0.9,1-1.1s1-0.4,1.5-0.4c0.7,0,1.2,0.2,1.7,0.5s0.7,0.8,0.8,1.5l-1,0.2c-0.1-0.4-0.3-0.7-0.5-0.9
	s-0.5-0.3-0.9-0.3c-0.5,0-1,0.2-1.3,0.6s-0.5,1-0.5,1.8c0,0.8,0.2,1.4,0.5,1.8s0.7,0.6,1.3,0.6c0.4,0,0.8-0.1,1-0.4
	S473.4,184.1,473.5,183.5z"/>
<path class="st0" d="M475,184l1-0.2c0.1,0.4,0.2,0.7,0.5,1s0.6,0.3,1.1,0.3c0.5,0,0.8-0.1,1.1-0.3s0.4-0.4,0.4-0.7
	c0-0.2-0.1-0.4-0.3-0.6c-0.1-0.1-0.5-0.2-1.1-0.4c-0.8-0.2-1.3-0.4-1.6-0.5s-0.5-0.3-0.7-0.6s-0.2-0.5-0.2-0.8
	c0-0.3,0.1-0.5,0.2-0.8s0.3-0.4,0.5-0.6c0.2-0.1,0.4-0.2,0.7-0.3s0.6-0.1,0.9-0.1c0.5,0,0.9,0.1,1.3,0.2s0.6,0.3,0.8,0.6
	s0.3,0.6,0.4,1l-1,0.1c0-0.3-0.2-0.6-0.4-0.8s-0.5-0.3-1-0.3c-0.5,0-0.8,0.1-1,0.2s-0.3,0.3-0.3,0.6c0,0.1,0,0.3,0.1,0.4
	c0.1,0.1,0.2,0.2,0.4,0.3c0.1,0,0.4,0.1,0.9,0.3c0.7,0.2,1.3,0.4,1.6,0.5s0.5,0.3,0.7,0.6s0.3,0.5,0.3,0.9c0,0.4-0.1,0.7-0.3,1
	s-0.5,0.6-0.9,0.7s-0.8,0.3-1.3,0.3c-0.8,0-1.4-0.2-1.8-0.5S475.1,184.6,475,184z"/>
<path class="st0" d="M483.2,185.8l-2.4-6.2h1.1l1.3,3.7c0.1,0.4,0.3,0.8,0.4,1.3c0.1-0.3,0.2-0.7,0.4-1.2l1.4-3.8h1.1l-2.4,6.2
	H483.2z"/>
<path class="st0" d="M486.4,188.2v-0.8h7v0.8H486.4z"/>
<path class="st0" d="M493.8,183.6l1.1-0.1c0.1,0.5,0.3,0.9,0.6,1.2s0.7,0.4,1.1,0.4c0.5,0,0.9-0.2,1.3-0.6s0.5-0.9,0.5-1.5
	c0-0.6-0.2-1.1-0.5-1.4s-0.8-0.5-1.3-0.5c-0.3,0-0.6,0.1-0.9,0.2s-0.5,0.4-0.6,0.6l-1-0.1l0.8-4.4h4.3v1h-3.4l-0.5,2.3
	c0.5-0.4,1.1-0.5,1.6-0.5c0.8,0,1.4,0.3,1.9,0.8s0.8,1.2,0.8,2c0,0.8-0.2,1.4-0.7,2c-0.6,0.7-1.3,1-2.3,1c-0.8,0-1.4-0.2-1.9-0.7
	S493.9,184.3,493.8,183.6z"/>
<path class="st0" d="M473.5,240.6l1,0.1c-0.1,0.7-0.4,1.3-0.9,1.7s-1,0.6-1.7,0.6c-0.9,0-1.5-0.3-2.1-0.8s-0.8-1.4-0.8-2.4
	c0-0.7,0.1-1.3,0.3-1.8s0.6-0.9,1-1.1s1-0.4,1.5-0.4c0.7,0,1.2,0.2,1.7,0.5s0.7,0.8,0.8,1.5l-1,0.2c-0.1-0.4-0.3-0.7-0.5-0.9
	s-0.5-0.3-0.9-0.3c-0.5,0-1,0.2-1.3,0.6s-0.5,1-0.5,1.8c0,0.8,0.2,1.4,0.5,1.8s0.7,0.6,1.3,0.6c0.4,0,0.8-0.1,1-0.4
	S473.4,241.1,473.5,240.6z"/>
<path class="st0" d="M475,241l1-0.2c0.1,0.4,0.2,0.7,0.5,1s0.6,0.3,1.1,0.3c0.5,0,0.8-0.1,1.1-0.3s0.4-0.4,0.4-0.7
	c0-0.2-0.1-0.4-0.3-0.6c-0.1-0.1-0.5-0.2-1.1-0.4c-0.8-0.2-1.3-0.4-1.6-0.5s-0.5-0.3-0.7-0.6s-0.2-0.5-0.2-0.8
	c0-0.3,0.1-0.5,0.2-0.8s0.3-0.4,0.5-0.6c0.2-0.1,0.4-0.2,0.7-0.3s0.6-0.1,0.9-0.1c0.5,0,0.9,0.1,1.3,0.2s0.6,0.3,0.8,0.6
	s0.3,0.6,0.4,1l-1,0.1c0-0.3-0.2-0.6-0.4-0.8s-0.5-0.3-1-0.3c-0.5,0-0.8,0.1-1,0.2s-0.3,0.3-0.3,0.6c0,0.1,0,0.3,0.1,0.4
	c0.1,0.1,0.2,0.2,0.4,0.3c0.1,0,0.4,0.1,0.9,0.3c0.7,0.2,1.3,0.4,1.6,0.5s0.5,0.3,0.7,0.6s0.3,0.5,0.3,0.9c0,0.4-0.1,0.7-0.3,1
	s-0.5,0.6-0.9,0.7s-0.8,0.3-1.3,0.3c-0.8,0-1.4-0.2-1.8-0.5S475.1,241.7,475,241z"/>
<path class="st0" d="M483.2,242.9l-2.4-6.2h1.1l1.3,3.7c0.1,0.4,0.3,0.8,0.4,1.3c0.1-0.3,0.2-0.7,0.4-1.2l1.4-3.8h1.1l-2.4,6.2
	H483.2z"/>
<path class="st0" d="M486.4,245.2v-0.8h7v0.8H486.4z"/>
<path class="st0" d="M499.3,236.4l-1,0.1c-0.1-0.4-0.2-0.7-0.4-0.9c-0.3-0.3-0.6-0.5-1.1-0.5c-0.3,0-0.6,0.1-0.9,0.3
	c-0.3,0.2-0.6,0.6-0.8,1.1s-0.3,1.1-0.3,2c0.3-0.4,0.6-0.7,0.9-0.9s0.8-0.3,1.2-0.3c0.7,0,1.3,0.3,1.8,0.8s0.7,1.2,0.7,2
	c0,0.5-0.1,1-0.3,1.5s-0.6,0.8-1,1.1s-0.9,0.4-1.4,0.4c-0.9,0-1.6-0.3-2.2-1s-0.8-1.7-0.8-3.2c0-1.7,0.3-2.9,0.9-3.6
	c0.5-0.7,1.3-1,2.2-1c0.7,0,1.2,0.2,1.7,0.6S499.2,235.7,499.3,236.4z M495,240.1c0,0.4,0.1,0.7,0.2,1s0.4,0.6,0.6,0.8
	s0.6,0.3,0.9,0.3c0.4,0,0.8-0.2,1.1-0.5s0.5-0.8,0.5-1.5c0-0.6-0.2-1.1-0.5-1.4s-0.7-0.5-1.2-0.5c-0.5,0-0.9,0.2-1.2,0.5
	S495,239.5,495,240.1z"/>
<path class="st0" d="M175.4,127.3l1,0.1c-0.1,0.7-0.4,1.3-0.9,1.7s-1,0.6-1.7,0.6c-0.9,0-1.5-0.3-2.1-0.8s-0.8-1.4-0.8-2.4
	c0-0.7,0.1-1.3,0.3-1.8s0.6-0.9,1-1.1s1-0.4,1.5-0.4c0.7,0,1.2,0.2,1.7,0.5s0.7,0.8,0.8,1.5l-1,0.2c-0.1-0.4-0.3-0.7-0.5-0.9
	s-0.5-0.3-0.9-0.3c-0.5,0-1,0.2-1.3,0.6s-0.5,1-0.5,1.8c0,0.8,0.2,1.4,0.5,1.8s0.7,0.6,1.3,0.6c0.4,0,0.8-0.1,1-0.4
	S175.4,127.8,175.4,127.3z"/>
<path class="st0" d="M176.9,127.7l1-0.2c0.1,0.4,0.2,0.7,0.5,1s0.6,0.3,1.1,0.3c0.5,0,0.8-0.1,1.1-0.3s0.4-0.4,0.4-0.7
	c0-0.2-0.1-0.4-0.3-0.6c-0.1-0.1-0.5-0.2-1.1-0.4c-0.8-0.2-1.3-0.4-1.6-0.5s-0.5-0.3-0.7-0.6s-0.2-0.5-0.2-0.8
	c0-0.3,0.1-0.5,0.2-0.8s0.3-0.4,0.5-0.6c0.2-0.1,0.4-0.2,0.7-0.3s0.6-0.1,0.9-0.1c0.5,0,0.9,0.1,1.3,0.2s0.6,0.3,0.8,0.6
	s0.3,0.6,0.4,1l-1,0.1c0-0.3-0.2-0.6-0.4-0.8s-0.5-0.3-1-0.3c-0.5,0-0.8,0.1-1,0.2s-0.3,0.3-0.3,0.6c0,0.1,0,0.3,0.1,0.4
	c0.1,0.1,0.2,0.2,0.4,0.3c0.1,0,0.4,0.1,0.9,0.3c0.7,0.2,1.3,0.4,1.6,0.5s0.5,0.3,0.7,0.6s0.3,0.5,0.3,0.9c0,0.4-0.1,0.7-0.3,1
	s-0.5,0.6-0.9,0.7s-0.8,0.3-1.3,0.3c-0.8,0-1.4-0.2-1.8-0.5S177.1,128.3,176.9,127.7z"/>
<path class="st0" d="M185.1,129.5l-2.4-6.2h1.1l1.3,3.7c0.1,0.4,0.3,0.8,0.4,1.3c0.1-0.3,0.2-0.7,0.4-1.2l1.4-3.8h1.1l-2.4,6.2
	H185.1z"/>
<path class="st0" d="M188.4,131.9v-0.8h7v0.8H188.4z"/>
<path class="st0" d="M199.7,129.5h-1.1v-6.7c-0.3,0.2-0.6,0.5-1,0.7s-0.8,0.4-1.1,0.5v-1c0.6-0.3,1.1-0.6,1.5-1s0.8-0.8,0.9-1.1h0.7
	V129.5z"/>
<g>
	<path class="st0" d="M175.4,183.5l1,0.1c-0.1,0.7-0.4,1.3-0.9,1.7s-1,0.6-1.7,0.6c-0.9,0-1.5-0.3-2.1-0.8s-0.8-1.4-0.8-2.4
		c0-0.7,0.1-1.3,0.3-1.8s0.6-0.9,1-1.1s1-0.4,1.5-0.4c0.7,0,1.2,0.2,1.7,0.5s0.7,0.8,0.8,1.5l-1,0.2c-0.1-0.4-0.3-0.7-0.5-0.9
		s-0.5-0.3-0.9-0.3c-0.5,0-1,0.2-1.3,0.6s-0.5,1-0.5,1.8c0,0.8,0.2,1.4,0.5,1.8s0.7,0.6,1.3,0.6c0.4,0,0.8-0.1,1-0.4
		S175.4,184.1,175.4,183.5z"/>
	<path class="st0" d="M176.9,184l1-0.2c0.1,0.4,0.2,0.7,0.5,1s0.6,0.3,1.1,0.3c0.5,0,0.8-0.1,1.1-0.3s0.4-0.4,0.4-0.7
		c0-0.2-0.1-0.4-0.3-0.6c-0.1-0.1-0.5-0.2-1.1-0.4c-0.8-0.2-1.3-0.4-1.6-0.5s-0.5-0.3-0.7-0.6s-0.2-0.5-0.2-0.8
		c0-0.3,0.1-0.5,0.2-0.8s0.3-0.4,0.5-0.6c0.2-0.1,0.4-0.2,0.7-0.3s0.6-0.1,0.9-0.1c0.5,0,0.9,0.1,1.3,0.2s0.6,0.3,0.8,0.6
		s0.3,0.6,0.4,1l-1,0.1c0-0.3-0.2-0.6-0.4-0.8s-0.5-0.3-1-0.3c-0.5,0-0.8,0.1-1,0.2s-0.3,0.3-0.3,0.6c0,0.1,0,0.3,0.1,0.4
		c0.1,0.1,0.2,0.2,0.4,0.3c0.1,0,0.4,0.1,0.9,0.3c0.7,0.2,1.3,0.4,1.6,0.5s0.5,0.3,0.7,0.6s0.3,0.5,0.3,0.9c0,0.4-0.1,0.7-0.3,1
		s-0.5,0.6-0.9,0.7s-0.8,0.3-1.3,0.3c-0.8,0-1.4-0.2-1.8-0.5S177.1,184.6,176.9,184z"/>
	<path class="st0" d="M185.1,185.8l-2.4-6.2h1.1l1.3,3.7c0.1,0.4,0.3,0.8,0.4,1.3c0.1-0.3,0.2-0.7,0.4-1.2l1.4-3.8h1.1l-2.4,6.2
		H185.1z"/>
	<path class="st0" d="M188.4,188.2v-0.8h7v0.8H188.4z"/>
	<path class="st0" d="M201.3,184.8v1h-5.7c0-0.3,0-0.5,0.1-0.7c0.1-0.4,0.4-0.8,0.7-1.1s0.8-0.8,1.4-1.3c0.9-0.8,1.6-1.4,1.9-1.8
		s0.5-0.9,0.5-1.3c0-0.4-0.1-0.8-0.4-1.1s-0.7-0.4-1.2-0.4c-0.5,0-0.9,0.2-1.2,0.5s-0.5,0.7-0.5,1.3l-1.1-0.1
		c0.1-0.8,0.4-1.4,0.8-1.8s1.1-0.6,2-0.6c0.8,0,1.5,0.2,2,0.7s0.7,1,0.7,1.7c0,0.3-0.1,0.7-0.2,1s-0.4,0.7-0.7,1s-0.9,0.9-1.6,1.5
		c-0.6,0.5-1,0.9-1.2,1.1s-0.3,0.4-0.4,0.6H201.3z"/>
</g>
<path class="st0" d="M175.4,240.6l1,0.1c-0.1,0.7-0.4,1.3-0.9,1.7s-1,0.6-1.7,0.6c-0.9,0-1.5-0.3-2.1-0.8s-0.8-1.4-0.8-2.4
	c0-0.7,0.1-1.3,0.3-1.8s0.6-0.9,1-1.1s1-0.4,1.5-0.4c0.7,0,1.2,0.2,1.7,0.5s0.7,0.8,0.8,1.5l-1,0.2c-0.1-0.4-0.3-0.7-0.5-0.9
	s-0.5-0.3-0.9-0.3c-0.5,0-1,0.2-1.3,0.6s-0.5,1-0.5,1.8c0,0.8,0.2,1.4,0.5,1.8s0.7,0.6,1.3,0.6c0.4,0,0.8-0.1,1-0.4
	S175.4,241.1,175.4,240.6z"/>
<path class="st0" d="M176.9,241l1-0.2c0.1,0.4,0.2,0.7,0.5,1s0.6,0.3,1.1,0.3c0.5,0,0.8-0.1,1.1-0.3s0.4-0.4,0.4-0.7
	c0-0.2-0.1-0.4-0.3-0.6c-0.1-0.1-0.5-0.2-1.1-0.4c-0.8-0.2-1.3-0.4-1.6-0.5s-0.5-0.3-0.7-0.6s-0.2-0.5-0.2-0.8
	c0-0.3,0.1-0.5,0.2-0.8s0.3-0.4,0.5-0.6c0.2-0.1,0.4-0.2,0.7-0.3s0.6-0.1,0.9-0.1c0.5,0,0.9,0.1,1.3,0.2s0.6,0.3,0.8,0.6
	s0.3,0.6,0.4,1l-1,0.1c0-0.3-0.2-0.6-0.4-0.8s-0.5-0.3-1-0.3c-0.5,0-0.8,0.1-1,0.2s-0.3,0.3-0.3,0.6c0,0.1,0,0.3,0.1,0.4
	c0.1,0.1,0.2,0.2,0.4,0.3c0.1,0,0.4,0.1,0.9,0.3c0.7,0.2,1.3,0.4,1.6,0.5s0.5,0.3,0.7,0.6s0.3,0.5,0.3,0.9c0,0.4-0.1,0.7-0.3,1
	s-0.5,0.6-0.9,0.7s-0.8,0.3-1.3,0.3c-0.8,0-1.4-0.2-1.8-0.5S177.1,241.7,176.9,241z"/>
<path class="st0" d="M185.1,242.9l-2.4-6.2h1.1l1.3,3.7c0.1,0.4,0.3,0.8,0.4,1.3c0.1-0.3,0.2-0.7,0.4-1.2l1.4-3.8h1.1l-2.4,6.2
	H185.1z"/>
<path class="st0" d="M188.4,245.2v-0.8h7v0.8H188.4z"/>
<path class="st0" d="M195.8,240.6l1.1-0.1c0.1,0.6,0.3,1,0.6,1.3s0.6,0.4,1.1,0.4c0.5,0,0.9-0.2,1.3-0.5s0.5-0.8,0.5-1.3
	c0-0.5-0.2-0.9-0.5-1.2s-0.7-0.5-1.2-0.5c-0.2,0-0.4,0-0.7,0.1l0.1-0.9c0.1,0,0.1,0,0.2,0c0.4,0,0.9-0.1,1.2-0.4s0.5-0.6,0.5-1.1
	c0-0.4-0.1-0.7-0.4-1s-0.6-0.4-1-0.4c-0.4,0-0.8,0.1-1,0.4s-0.4,0.6-0.5,1.2l-1.1-0.2c0.1-0.7,0.4-1.3,0.9-1.6s1-0.6,1.7-0.6
	c0.5,0,0.9,0.1,1.3,0.3s0.7,0.5,0.9,0.8s0.3,0.7,0.3,1.1c0,0.4-0.1,0.7-0.3,1s-0.5,0.5-0.9,0.7c0.5,0.1,0.9,0.4,1.2,0.7
	s0.4,0.8,0.4,1.4c0,0.8-0.3,1.4-0.8,1.9s-1.2,0.8-2.1,0.8c-0.8,0-1.4-0.2-1.9-0.7S195.8,241.3,195.8,240.6z"/>
<g>
	<path class="st4" d="M174.3,91.1c7.5,6.8,5.1,16.4,8.2,21.7c1.9,3.2,8.2,6.8,9.4,10.5c1.9,6.1-3.2,8.1-2.2,11.5
		c1.5,4.7,7.8,4.5,8.7,12.1s-7.7,15.6-27.6,17.2s-30.7-5.9-31.2-12.4s6.1-8.5,6.7-13.3c0.4-3.1-3.7-5.3-3.7-11s5.5-7.4,6.4-12.2
		s-1.3-16.6,5.9-22.4S170.6,87.7,174.3,91.1z"/>
	<path class="st4" d="M173.4,91.2c2.1,1.6,3.8,3.6,5,6c1.2,2.5,2.1,5.2,2.6,7.9c0.3,1.6,0.8,3.2,1.4,4.7c0.7,1.3,1.5,2.4,2.6,3.4
		c2.1,2,4.6,3.6,6.5,5.8s3.1,4.9,2.3,7.7c-0.4,1.5-1.5,2.8-2.1,4.2s-0.9,3,0.2,4.2c1,1,2.4,1.5,3.5,2.3c1.1,0.8,2,1.8,2.8,2.9
		c1.6,2.2,2.2,5,1.6,7.7c-1.3,6.2-7.2,9.5-12.6,11.6l-2.3,0.9c-0.1,0.1-0.2-0.1-0.1-0.2c5.4-2.3,11.8-4.9,14-10.9
		c1-2.6,0.7-5.6-0.7-8c-0.7-1.2-1.7-2.2-2.8-3.1c-1.1-0.8-2.3-1.4-3.4-2.1c-1.1-0.7-1.7-2-1.6-3.3c0.2-1.4,0.8-2.8,1.6-3.9
		c0.9-1.2,1.3-2.6,1.4-4.1c-0.1-1.4-0.6-2.8-1.5-4c-1.6-2.4-4.1-4-6.2-5.9c-2.2-1.7-3.9-4.1-4.7-6.8c-0.4-1.4-0.6-2.9-0.9-4.3
		c-0.3-1.4-0.7-2.7-1.1-4c-0.8-2.6-2.2-5-4-7c-0.5-0.5-1-1-1.6-1.4C173.3,91.3,173.3,91.2,173.4,91.2z"/>
	<path class="st4" d="M138.7,147c0.3-1,0.8-2,1.5-2.9c0.7-0.9,1.6-1.6,2.4-2.4c0.8-0.7,1.4-1.6,1.7-2.6c0.2-1.3-0.1-2.5-0.8-3.6
		c-0.7-1.1-1.2-2.3-1.7-3.5c-0.4-1.2-0.6-2.5-0.7-3.7c0-2.6,0.7-5.2,2.2-7.4c0.7-1.1,1.5-2.1,2.2-3.2c0.8-1.2,1.4-2.5,1.9-3.8
		c1-3,1.2-6.1,2.1-9.1c0.8-3.1,2-6.1,3.5-8.9c0-0.1,0.1,0,0.1,0.1c-1.3,2.6-2.3,5.3-3,8.1c-0.7,2.6-1,5.4-1.6,8
		c-0.3,1.3-0.6,2.6-1.2,3.9c-0.5,1.1-1.1,2.3-1.8,3.3c-1.4,2.2-2.8,4.3-3.3,6.9c-0.4,2.5-0.1,5.2,1.1,7.5c1,2,2.4,4.2,1.4,6.5
		c-0.8,1.9-2.7,3.1-4,4.7c-1.4,1.8-1.9,4.1-1.5,6.3c0.9,5.6,6.4,8.5,11.7,8.9c0.1,0,0.1,0.1,0.1,0.1c0,0.1-0.1,0.1-0.1,0.1
		c-4.6-0.2-9.4-2.3-11.5-6.6C138.4,151.4,138.2,149.2,138.7,147z"/>
	<path class="st9" d="M168.2,136.5c8.5,4.5,38.1,17.2,46.6,12.6c5.6-3,31.9-25.7,32.8-30.3c0.6-3.1-17.5-18.2-19.5-15.5
		s-22.1,24.2-24.4,25.2s-27.4-3.5-36-3.1C152.7,126.3,163.6,134.1,168.2,136.5z"/>
	<path class="st5" d="M221.5,108.2l19.8,20.4c0,0-22.6,22.4-29.1,22.7s-31.1-6.8-45.1-14.8s-8.1-13.5,3.8-12s30.6,3.9,31.9,3
		S221.5,108.2,221.5,108.2z"/>
	<path class="st4" d="M234.4,131.2c-2.7-2.7-5.4-5.4-8-8.1c-1.3-1.4-2.6-2.7-3.9-4.1s-2.5-3-3.8-4.4c-0.1-0.1,0-0.3,0.1-0.2
		c1.3,1.4,2.7,2.6,4,3.9s2.7,2.8,4,4.2c2.6,2.8,5.2,5.6,7.7,8.6C234.6,131.1,234.5,131.2,234.4,131.2z"/>
	<path class="st10" d="M196.5,148.2c-9.6-2.8-21.2-7.1-29.3-11.7c-11.1-6.3-9.7-11.1-2.6-12.1L196.5,148.2z"/>
	<path class="st5" d="M167.3,124.6c2.4,3.4,11.2,17.2,14.2,24.9s20,95.7,16.4,99.8s-35.6,3.2-40.4-3.2c-9-12.2-1.7-68.1-1.7-68.1
		s-1.4-30.3,4.9-45.9C163.4,125.5,167.3,124.6,167.3,124.6z"/>
	<g>
		
			<rect x="191.4" y="101.3" transform="matrix(2.792512e-03 -1 1 2.792512e-03 89.3554 407.0679)" class="st0" width="114.9" height="114.9"/>
		
			<rect x="198.1" y="108.1" transform="matrix(2.792512e-03 -1 1 2.792512e-03 89.3554 407.0679)" class="st5" width="101.3" height="101.3"/>
		<polygon class="st8" points="294,122.9 203.3,122.8 203.4,116.2 294,116.3 		"/>
		<polygon class="st8" points="283.2,136.5 203.3,136.4 203.4,129.8 283.3,129.9 		"/>
		<polygon class="st8" points="294,177.3 203.3,177.3 203.4,170.6 294,170.7 		"/>
		<polygon class="st8" points="286,190.9 203.3,190.9 203.4,184.2 286,184.3 		"/>
		<polygon class="st8" points="246.2,204.5 203.3,204.5 203.4,197.9 246.2,197.9 		"/>
		<g class="st8">
			<path d="M232.4,155.3l5.2,1.6c-0.3,1.5-0.9,2.7-1.6,3.6c-0.8,1-1.7,1.7-2.8,2.2c-1.1,0.5-2.5,0.7-4.2,0.7c-2.1,0-3.8-0.3-5.1-0.9
				c-1.3-0.6-2.5-1.7-3.4-3.2c-1-1.5-1.4-3.5-1.4-5.9c0-3.2,0.8-5.6,2.5-7.3c1.7-1.7,4.1-2.6,7.2-2.6c2.4,0,4.3,0.5,5.7,1.5
				c1.4,1,2.4,2.5,3.1,4.5l-5.2,1.2c-0.2-0.6-0.4-1-0.6-1.3c-0.3-0.5-0.7-0.8-1.2-1s-1-0.4-1.6-0.4c-1.3,0-2.4,0.5-3.1,1.6
				c-0.5,0.8-0.8,2.1-0.8,3.8c0,2.1,0.3,3.6,1,4.4c0.6,0.8,1.6,1.2,2.7,1.2c1.1,0,2-0.3,2.6-1C231.7,157.4,232.1,156.5,232.4,155.3z
				"/>
			<path d="M239.4,156.8l5.6-0.4c0.1,0.9,0.4,1.6,0.7,2.1c0.6,0.8,1.5,1.2,2.6,1.2c0.8,0,1.5-0.2,2-0.6c0.5-0.4,0.7-0.9,0.7-1.4
				c0-0.5-0.2-0.9-0.7-1.3c-0.4-0.4-1.4-0.8-3-1.1c-2.6-0.6-4.5-1.4-5.6-2.3c-1.1-1-1.7-2.2-1.7-3.7c0-1,0.3-1.9,0.9-2.8
				c0.6-0.9,1.4-1.6,2.6-2.1c1.1-0.5,2.7-0.8,4.7-0.8c2.4,0,4.3,0.5,5.6,1.4c1.3,0.9,2.1,2.4,2.3,4.3l-5.6,0.3
				c-0.1-0.9-0.5-1.5-0.9-1.9c-0.5-0.4-1.1-0.6-2-0.6c-0.7,0-1.2,0.1-1.6,0.4c-0.3,0.3-0.5,0.6-0.5,1.1c0,0.3,0.1,0.6,0.4,0.8
				c0.3,0.3,0.9,0.5,2,0.7c2.6,0.6,4.4,1.1,5.6,1.7c1.1,0.6,1.9,1.3,2.4,2.1c0.5,0.8,0.8,1.8,0.8,2.8c0,1.2-0.3,2.4-1,3.4
				c-0.7,1-1.6,1.8-2.9,2.4c-1.2,0.5-2.8,0.8-4.6,0.8c-3.3,0-5.5-0.6-6.8-1.9S239.6,158.7,239.4,156.8z"/>
			<path d="M257.9,144h6.2l4.3,13.8l4.3-13.8h6l-7.1,19.2h-6.4L257.9,144z"/>
		</g>
	</g>
	<g>
		<g>
			<path class="st9" d="M213.7,397.9c-1.9,0.6-55.7-0.1-57.8-1.4c-0.8-0.5-1.1-8.3-1.3-17.8c0-2-0.1-4.2-0.1-6.3
				c-0.1-14,0.1-28.8,0.1-28.8l35,0.2l-0.1,29l-0.2,6.3c0,0,20.5,9.5,22.6,11.2S215.6,397.3,213.7,397.9z"/>
			<path class="st0" d="M213.7,397.9c-1.9,0.6-55.7-0.1-57.8-1.4c-0.9-0.6-1.3-12.1-1.4-24.2l35,0.4l-0.2,6.3
				c0,0,20.5,9.5,22.6,11.2S215.6,397.3,213.7,397.9z"/>
			<path class="st11" d="M145.7,177.2c0,0,6.9,97.4,8.1,104.8c0.3,1.7,0.3,10.9,0.2,22.7c-0.2,25.8-0.3,72.3-0.3,72.3l37.3,0.7
				c0,0,2.7-80.5,1.2-95.4s-11.4-104.5-11.4-104.5L145.7,177.2z"/>
			<path class="st4" d="M189.3,370.6c-5.8-0.2-4.1-0.3-9.9-0.4c-2.8-0.1-21.5-0.6-24.1-0.2c-0.1,0-0.1,0.1,0,0.1
				c2.6,0.5,21.3,0.7,24.1,0.7c5.8,0,4.1,0,9.9-0.1C189.4,370.8,189.4,370.6,189.3,370.6z"/>
			<path class="st4" d="M161.6,324c0.1-5.9,0.1-11.8,0.2-17.6c0.1-5.7,0.2-11.4,0-17.1c-0.3-11.5-2.5-22.9-3.9-34.3
				c-1.5-11.4-2.6-22.9-3.7-34.4c-1.2-12.9-2.2-25.8-3.3-38.6c0-0.1-0.1-0.1-0.1,0c1.5,23,3.2,46,6,68.9c0.7,5.7,1.4,11.4,2.3,17
				c0.9,5.8,1.7,11.5,2,17.3c0.3,5.8,0.3,11.4,0.3,17l-0.1,17.6c-0.1,13.1-0.4,33.2-0.5,46.2c0,0.1,0.1,0.2,0.2,0.2
				c0.1,0,0.1-0.1,0.2-0.2C161.2,354.4,161.4,335.7,161.6,324z"/>
			<path class="st4" d="M137.1,177.1c0,0,15.4,97.5,16.7,105c0.3,1.7,0.3,10.9,0.2,22.7l0,0l21.7-127L137.1,177.1z"/>
		</g>
		<g>
			<path class="st5" d="M213.7,397.9c-1.9,0.6-55.7-0.1-57.8-1.4c-0.8-0.5-1.1-8.3-1.3-17.8l34.7,0.4c0,0,20.5,9.5,22.6,11.2
				S215.6,397.3,213.7,397.9z"/>
			<path class="st4" d="M213,395.7c-9-0.3-45.4-0.9-54.4-0.5c-0.1,0-0.1,0.1,0,0.1c8.9,0.5,45.4,0.8,54.4,0.6
				C213.1,395.8,213.1,395.7,213,395.7z"/>
			<path class="st4" d="M208.5,388.2c-2-0.1-4,0.7-5.4,2.1c-1.3,1.3-2,3-2.1,4.8c0,0,0.1,0,0.1,0c0.7-3.7,3.7-6.4,7.4-6.8
				C208.5,388.2,208.5,388.2,208.5,388.2C208.5,388.2,208.5,388.2,208.5,388.2z"/>
			<path class="st4" d="M192.8,379.9c-3.6-0.1-7.8,1.1-10.1,4c-0.1,0.1,0.1,0.2,0.2,0.2c3.2-1.6,6.5-2.9,10-3.8
				c0.1,0,0.2-0.2,0.2-0.3C193,380,192.9,379.9,192.8,379.9z"/>
			<path class="st4" d="M195.6,381c-3.6-0.1-7.8,1.1-10.1,4c-0.1,0.1,0.1,0.2,0.2,0.2c3.2-1.6,6.5-2.9,10-3.8c0.1,0,0.2-0.2,0.2-0.3
				C195.8,381.1,195.7,381,195.6,381z"/>
			<path class="st4" d="M198.4,382.1c-3.6-0.1-7.8,1.1-10.1,4c-0.1,0.1,0.1,0.2,0.2,0.2c3.2-1.6,6.5-2.9,10-3.8
				c0.1,0,0.2-0.1,0.2-0.3C198.6,382.2,198.5,382.1,198.4,382.1L198.4,382.1z"/>
			<path class="st4" d="M201.2,383.3c-3.6-0.1-7.8,1.1-10.1,4c-0.1,0.1,0.1,0.2,0.2,0.2c3.2-1.6,6.5-2.9,10-3.8
				c0.1,0,0.2-0.2,0.2-0.3C201.4,383.3,201.3,383.3,201.2,383.3z"/>
			<path class="st1" d="M161,386.6c-4.1,0-4.1,6.3-0.1,6.3S165,386.7,161,386.6z"/>
			<path class="st4" d="M196.9,370.3c-1.8-1.5-4.1-0.1-5.3,1.5c-1.9,2.7-3.1,5.9-3.4,9.2c0,0,0,0.1,0.1,0.1c0,0,0,0,0,0
				c0,0.2,0.3,0.4,0.5,0.3c0,0,0.1,0,0.1,0c2.6-1.7,5.6-3.3,7.6-5.8C197.7,374.1,198.6,371.8,196.9,370.3z M192.3,377.9
				c-1.3,0.9-2.6,1.7-3.8,2.7c0.7-1.8,1.3-3.6,2.1-5.3c0.4-0.8,0.8-1.6,1.4-2.4c0.8-1.2,4.4-4.2,4.7-0.2
				C196.9,374.8,193.8,376.9,192.3,377.9z"/>
			<path class="st4" d="M179.2,382.2c3.1,0.5,6.4-0.3,9.5-0.8c0.2-0.1,0.4-0.3,0.3-0.5c0,0,0-0.1,0-0.1c0,0,0.1-0.1,0-0.1
				c0,0,0,0,0,0c-2.4-2.3-5.4-3.8-8.7-4.6c-1.9-0.4-4.6,0.1-4.9,2.4C175.1,380.8,177.4,381.9,179.2,382.2z M177,380.1
				c-2.4-3.1,2.2-3.3,3.6-3c0.9,0.2,1.8,0.5,2.6,0.9c1.8,0.7,3.4,1.7,5.1,2.5c-1.5,0.1-3.1,0.4-4.6,0.6
				C182,381.3,178.4,381.8,177,380.1L177,380.1z"/>
		</g>
		<path class="st4" d="M173.5,211.3c-4.2,1.5-8.3,3.3-12.2,5.4c-0.1,0-0.1,0.1,0,0.2c0,0,0.1,0.1,0.1,0.1c4.1-1.7,8.3-3.3,12.3-5.2
			c0.1-0.1,0.2-0.2,0.1-0.4C173.8,211.4,173.6,211.3,173.5,211.3z"/>
		<path class="st4" d="M167.9,204.5c0.4-2.4,0.8-4.9,1.1-7.3c0.5-4.6,0.5-9.2,0.1-13.8c0-0.1-0.1-0.1-0.1-0.1c0,0-0.1,0-0.1,0.1
			c0,6.4-0.5,12.7-1.5,19c-0.5,3-2.1,7.5,1,8.1s5.4-7.1,5.9-9.1c1.1-5.9,1.5-12,1-18c0-0.1-0.2-0.2-0.3,0c-0.1,4.6-0.4,9.1-0.9,13.6
			c-0.2,2.1-2.1,13.7-5.8,12.8c-0.6-0.1-0.9-0.8-1-1.7C167.4,206.9,167.6,205.7,167.9,204.5"/>
		<path class="st4" d="M168.5,210c-0.3,0.8-0.6,1.6-0.9,2.4c-0.2,0.6-0.4,1.3-0.4,2c0,0.1,0.2,0.1,0.2,0c0.4-0.6,0.7-1.2,0.9-1.9
			c0.3-0.7,0.6-1.5,0.9-2.2c0.1-0.2,0-0.4-0.2-0.5C168.8,209.7,168.6,209.8,168.5,210L168.5,210z"/>
		<g>
			<path class="st9" d="M117.5,398.3c-1.9-0.5-46.6-30.6-47.6-32.8c-0.4-0.8,3.6-7.6,8.7-15.6c1.1-1.7,2.2-3.5,3.4-5.3
				c7.6-11.7,15.9-24,15.9-24l29.2,19.3L111.2,364l-3.7,5.1c0,0,12,19.2,12.8,21.7S119.4,398.8,117.5,398.3z"/>
			<path class="st0" d="M117.5,398.3c-1.9-0.5-46.6-30.6-47.6-32.8c-0.5-1,5.5-10.8,12.1-21l29.1,19.5l-3.7,5.2
				c0,0,12,19.2,12.8,21.7S119.4,398.8,117.5,398.3z"/>
			<path class="st11" d="M110.6,367.4l-31.4-19.5c0,0,40-60,40.3-65.5c0.4-8.1,5-41.6,8.7-68.7c0,0-5.9-14.8,6.1-36.8l46.6,0.9
				c0,0-3.5,21.1-9.1,34.4c-3.6,1.2-7.1,2.7-10.5,4.5c0,0-5.7,60.5-6.1,68C154.6,299.7,110.6,367.4,110.6,367.4z"/>
			<path class="st4" d="M114.1,359.2c-4.9-3.2-3.5-2.4-8.4-5.5c-2.4-1.5-18.4-11.7-20.9-12.7c-0.1,0-0.1,0.1-0.1,0.1
				c2,1.8,18.2,11.7,20.6,13.2c5,3.1,3.6,2.1,8.7,5.1C114.1,359.4,114.2,359.2,114.1,359.2z"/>
			<path class="st4" d="M139.7,180c-1.5,2.4-2.7,5-3.6,7.6c-1,2.6-1.7,5.4-2.2,8.1c-0.3,1.4-0.4,2.8-0.6,4.2s-0.2,2.8-0.2,4.2
				c0,2.8,0.3,5.6,0.8,8.3v0.1c-1.3,11.7-2.6,23.4-4,35.2c-1.4,11.7-2.7,23.4-4.1,35.1l-0.1,1.1l-0.1,0.5c0,0.2-0.1,0.4-0.1,0.6
				c-0.3,0.7-0.7,1.4-1.1,2c-0.8,1.3-1.6,2.5-2.4,3.8c-1.6,2.5-3.2,5-4.8,7.4c-3.2,4.9-22.1,33.4-28.8,43l28.2-43.5
				c1.6-2.5,3.2-4.9,4.8-7.4c0.8-1.2,1.6-2.5,2.3-3.7c0.4-0.6,0.8-1.3,1-1.8c0.1-0.2,0.1-0.3,0.1-0.5l0.1-0.5l0.1-1.1
				c1.3-11.7,2.7-23.4,4.1-35.1c1.4-11.7,2.8-23.4,4.2-35.1v0.1c-0.5-2.8-0.8-5.6-0.7-8.4c0-1.4,0.1-2.8,0.2-4.2s0.4-2.8,0.7-4.2
				c0.6-2.8,1.4-5.5,2.4-8.1C136.9,184.9,138.2,182.4,139.7,180z"/>
		</g>
		<g>
			<path class="st5" d="M117.5,398.3c-1.9-0.5-46.6-30.6-47.6-32.8c-0.4-0.8,3.6-7.6,8.7-15.6l28.9,19.3c0,0,12,19.2,12.8,21.7
				S119.4,398.8,117.5,398.3z"/>
			<path class="st4" d="M118.1,396c-7.4-5.2-37.6-25.6-45.2-30.2c-0.1,0-0.1,0,0,0C80,371.2,110.4,391.3,118.1,396
				C118.2,396.3,118.3,396.2,118.1,396z"/>
			<path class="st4" d="M118.5,387.3c-1.7-1.2-3.7-1.6-5.7-1.2c-1.8,0.4-3.3,1.4-4.4,2.9c0,0,0.1,0.1,0.1,0.1
				C111.1,386.3,115.1,385.7,118.5,387.3C118.5,387.4,118.6,387.3,118.5,387.3z"/>
			<path class="st4" d="M109.9,371.8c-3-2.1-7.2-3.3-10.7-2.1c-0.1,0-0.1,0.2,0.1,0.2c3.5,0.4,7,1.2,10.4,2.3c0.1,0,0.2,0,0.3-0.2
				C110,372,110,371.9,109.9,371.8z"/>
			<path class="st4" d="M111.6,374.3c-3-2.1-7.2-3.3-10.7-2.1c-0.1,0-0.1,0.2,0,0.2c3.6,0.4,7.1,1.2,10.5,2.3c0.1,0.1,0.3,0,0.3-0.1
				C111.8,374.5,111.7,374.3,111.6,374.3z"/>
			<path class="st4" d="M113.3,376.7c-3-2.1-7.2-3.3-10.7-2.1c-0.1,0-0.1,0.2,0.1,0.2c3.5,0.4,7,1.2,10.4,2.3c0.1,0,0.2,0,0.3-0.2
				C113.4,376.8,113.4,376.8,113.3,376.7z"/>
			<path class="st4" d="M115,379.2c-3-2.1-7.1-3.3-10.7-2.1c-0.1,0-0.1,0.2,0.1,0.2c3.5,0.4,7,1.2,10.4,2.3c0.1,0.1,0.2,0,0.3-0.1
				S115.2,379.2,115,379.2z"/>
			<path class="st1" d="M79.6,360c-3.4-2.3-6.9,3-3.5,5.2C79.4,367.5,82.9,362.3,79.6,360z"/>
			<path class="st4" d="M118.6,366c-0.7-2.3-3.4-2.3-5.2-1.7c-3.1,1.2-5.8,3.2-7.9,5.8c0,0,0,0.1,0,0.1c0,0,0,0,0,0
				c-0.1,0.2,0,0.5,0.3,0.6c0,0,0.1,0,0.1,0c3.1,0,6.5,0.3,9.5-0.7C117.1,369.6,119.2,368.2,118.6,366z M110.6,369.9
				c-1.5,0.1-3.1,0-4.6,0.1c1.6-1.1,3-2.3,4.7-3.3c0.8-0.5,1.6-0.9,2.5-1.3c1.3-0.5,5.9-1.1,4,2.4
				C116.1,369.7,112.4,369.8,110.6,369.9L110.6,369.9z"/>
			<path class="st4" d="M97.3,366.3c2.3,2.1,5.5,3.2,8.4,4.5c0.3,0.1,0.6-0.1,0.6-0.4c0,0,0.1,0,0.1-0.1c0,0,0,0,0,0
				c-0.8-3.2-2.5-6.2-4.8-8.6c-1.4-1.4-3.9-2.5-5.4-0.6C94.6,362.9,95.9,365,97.3,366.3z M96.6,363.3c-0.3-3.9,3.7-1.5,4.7-0.5
				c0.6,0.7,1.2,1.4,1.7,2.2c1.1,1.6,2,3.3,2.9,4.9c-1.4-0.7-2.8-1.4-4.1-2C100.1,367.1,96.7,365.5,96.6,363.3L96.6,363.3z"/>
		</g>
		<path class="st0" d="M180.8,177.9l1.3-11.9c3.6-3.8,4.5-9.4,2.5-14.2c-1.4-3.5-10.5-21.7-16.5-25.8c-5.6-3.8-10.2-2.5-13.3,0.6
			c-9.8,9.8-16.3,26.8-20.6,50.6L180.8,177.9z"/>
		<path class="st4" d="M170.3,162.7c1.9,0.2,3.8,0.5,5.6,1.1c0.9,0.3,1.8,0.6,2.7,1c0.4,0.2,0.9,0.4,1.4,0.5c0.5,0.2,1,0.3,1.4,0.3
			v0.1c-0.9,0.1-1.8,0-2.7-0.3c-0.9-0.3-1.9-0.6-2.8-0.9c-1.9-0.6-3.8-1.2-5.7-1.6C170.2,162.9,170.2,162.7,170.3,162.7z"/>
		<path class="st4" d="M165.8,165.3c1.5-0.3,3.1-0.5,4.6-0.6c0.8,0,1.5,0,2.3,0.1l1.1,0.1c0.4,0.1,0.8,0.2,1.2,0.2v0.1
			c-0.4,0-0.8,0-1.2,0h-1.1c-0.8,0-1.6,0-2.3,0c-1.6,0-3.1,0-4.6,0.1C165.7,165.5,165.7,165.3,165.8,165.3z"/>
		<path class="st5" d="M158,124.3c1.2,4,6.3,25.1,6.8,33.4s-8.5,95.9-13.2,98.7c-4.7,2.8-34.9-7.8-37.5-15.4
			c-4.9-14.4,19.1-65.4,19.1-65.4s6.7-32.3,17.5-45.2C155.2,124.8,158,124.3,158,124.3z"/>
		<g>
			<path class="st9" d="M150.2,136c-5.9,14.6-12.5,45.7-9.1,50.9c5.9,9.1,20.3,19.6,29,24c2.9,1.5,14.3-21.1,10.9-22
				c-4.1-1-20.4-13.7-20.5-14.6c-0.2-1.2-1-20.6-1.5-33.9C158.2,124.5,152.5,130.1,150.2,136z"/>
			<path class="st9" d="M167.8,209.9c7.5,4.7,16.6,11,26.6,11.2c1.1,0.1,2.2-0.3,3.1-0.9c4.5,0.2,5.9-1.9,5.9-1.9
				c4.2-1.1,5.4-3.4,5.4-3.4s5.3,0.2,5.9-3c0.7-3.6-6.8-3.1-11.1-5.4c-9.9-5.2-22.4-15.4-25.1-17.2L167.8,209.9z"/>
			<path class="st4" d="M189.5,208.3c2.9,1.6,5.8,2.9,8.9,4.1c3.4,1.1,6.9,1.8,10.4,2.4c0,0,0.1,0,0.1,0.1c0,0,0,0.1-0.1,0.1
				c-6.9-0.4-13.6-2.6-19.4-6.5C189.3,208.4,189.4,208.2,189.5,208.3z"/>
			<path class="st4" d="M185.5,213.8c2.9,1.3,8.1,3.5,18,4.4v0.1c-6.3,0.3-12.6-1.2-18.1-4.3C185.3,213.9,185.3,213.7,185.5,213.8z"
				/>
			<path class="st4" d="M183.4,216.8c5.1,2,8.5,2.6,14.2,3.4 M197.6,220.2c-6.5-0.2-8.9-1-14.3-3.3c-0.2-0.1-0.1-0.3,0.1-0.2
				L197.6,220.2z"/>
			<path class="st9" d="M192.2,199.5c-1-1.2-0.4-1.7,2.3-1.2s13,5,14.3,1.3s-13.4-9.8-18-10.4c-4.1-0.3-8.2-0.2-12.2,0.1
				C181.2,191.1,187.1,196,192.2,199.5z"/>
		</g>
		<path class="st5" d="M179.4,186.8l-12.8,24.9c0,0-26.8-17.7-28.1-26.1s6.7-38.4,10.6-47.7s8.8-12.5,10.4,0s1.8,35.6,1.9,36.2
			S179.4,186.8,179.4,186.8z"/>
		<path class="st4" d="M162.9,205.9c1.6-3.5,3.2-6.9,5-10.3c0.9-1.7,1.7-3.4,2.6-5s2-3.4,2.9-5.1c0.1-0.1,0.3,0,0.2,0.1
			c-0.8,1.7-1.5,3.4-2.3,5.1s-1.8,3.5-2.6,5.2c-1.7,3.4-3.6,6.8-5.5,10.1c0,0.1-0.1,0.1-0.1,0.1S162.9,206,162.9,205.9z"/>
		<path class="st4" d="M166.4,177.9c-1.8-1.1-3.9-2.1-5.4-3.7c-0.2-1-0.3-2-0.4-3c-0.6-9.3-0.9-18.7-0.8-28.1l0.4,4.6l0.2,4.7
			c0.2,4.7,0.6,14,0.8,18.7c0,0.9,0.1,1.9,0.2,2.8C163,175.4,164.7,176.7,166.4,177.9L166.4,177.9z"/>
		<path class="st4" d="M161.3,145.9c0.2,1.5-0.2,2.9-1.1,4.1C160.4,148.6,160.8,147.3,161.3,145.9z"/>
		<path class="st4" d="M146.5,144.9c-1.8,5.8-3.4,11.6-4.6,17.6c-1.2,5.9-2.4,11.9-3.1,17.9c-0.2,1.5-0.2,3-0.1,4.4
			c0.7,4.5,4.1,7.9,7.3,10.9c2.2,2.1,4.5,4,6.9,5.9s4.8,3.8,7.2,5.6c-5-3.4-9.9-7.1-14.5-11c-4.8-4.2-8.9-9.1-7.5-15.9
			C139.7,168.2,142.5,156.4,146.5,144.9L146.5,144.9z"/>
		<path class="st4" d="M145.2,146.1c-0.4,1.5-0.5,3.1-0.4,4.6C144,149.2,144.2,147.4,145.2,146.1z"/>
		<path class="st9" d="M158,126.9c0.1,1,6.1,7.9,10.4,8.3c1.4,0.1,0.1-7.7,0.1-7.7l0.2-0.6l2.9-7.6l-8.4-7.2l-1.2-1
			c0,0-0.6,2.1-1.4,4.8l-0.1,0.4c0,0.1-0.1,0.3-0.1,0.4c-0.1,0.4-0.2,0.8-0.4,1.2s-0.2,0.6-0.2,0.9l-0.3,1
			C158.7,122.2,158.2,124.5,158,126.9z"/>
		<path class="st4" d="M160.4,115.9c1,4.7,4,8.7,8.2,11l2.9-7.6l-8.4-7.2l-1.2-1C161.9,111.1,161.2,113.3,160.4,115.9z"/>
		<path class="st9" d="M184.2,107.1c1,14.2-7.4,16.5-10.5,16.7c-2.8,0.2-12.3,0.5-14.8-13.6s3.8-19.1,10.2-19.9
			S183.1,92.8,184.2,107.1z"/>
		<path class="st4" d="M181.6,105.4c-0.3,0-0.7-0.1-1-0.2c-0.4,0-0.7-0.1-1-0.4c-0.1-0.2-0.1-0.4,0-0.6c0.3-0.3,0.8-0.4,1.2-0.3
			c0.5,0.1,0.9,0.3,1.2,0.6c0.2,0.2,0.1,0.6-0.1,0.8C181.9,105.4,181.8,105.4,181.6,105.4z"/>
		<path class="st4" d="M172,105.7c0.3-0.1,0.6-0.2,1-0.2c0.3,0,0.7-0.2,0.9-0.4c0.1-0.2,0.1-0.4,0-0.6c-0.3-0.3-0.8-0.4-1.3-0.2
			c-0.5,0.1-0.9,0.3-1.1,0.7c-0.2,0.2-0.1,0.6,0.1,0.7C171.8,105.7,171.9,105.7,172,105.7z"/>
		<path class="st4" d="M174.1,108.2C174.1,108.2,174.1,108.3,174.1,108.2c0,1.1-0.1,2.2-1,2.5v0.1
			C174.3,110.6,174.4,109.1,174.1,108.2z"/>
		<path class="st4" d="M173.3,107.2c-1.6-0.1-1.6,3.1-0.1,3.1S174.6,107.3,173.3,107.2z"/>
		<path class="st4" d="M172.6,107.4c-0.3,0.2-0.6,0.5-0.9,0.5s-0.7-0.3-0.9-0.6l0,0c0,0.6,0.2,1.2,0.9,1.3s1-0.4,1.2-1.1
			C172.8,107.5,172.7,107.3,172.6,107.4z"/>
		<path class="st4" d="M179.4,108.2C179.4,108.2,179.5,108.2,179.4,108.2c0,1.1,0.1,2.2,1,2.5c0,0,0,0.1,0,0
			C179.4,110.6,179.3,109.1,179.4,108.2z"/>
		<path class="st4" d="M180.3,107.2c1.6-0.1,1.6,3.1,0.2,3.1S179,107.3,180.3,107.2z"/>
		<path class="st4" d="M181,107.4c0.2,0.2,0.5,0.5,0.8,0.5s0.6-0.3,0.8-0.7l0,0c0,0.6-0.2,1.2-0.7,1.4s-0.9-0.4-1.1-1
			C180.8,107.5,180.9,107.3,181,107.4z"/>
		<path class="st4" d="M174.1,116.1c0.2,0.2,0.4,0.6,0.8,0.6c0.4,0,0.7,0,1.1-0.2 M175.9,116.6c-0.3,0.4-0.8,0.5-1.3,0.5
			c-0.4-0.1-0.7-0.5-0.7-0.9c0,0,0-0.1,0-0.1c0,0,0.1,0,0.1,0L175.9,116.6z"/>
		<path class="st4" d="M178.2,112.6c0,0,0.2,1.5,0.2,2.1c0,0.1-0.2,0.1-0.4,0.1l0,0c-1.2,0.2-2.4-0.2-3.2-1.2
			c-0.1-0.1,0-0.1,0.1-0.1c0.9,0.6,1.9,0.9,3,0.9c0.1-0.2-0.4-2.5-0.3-2.5c0.5,0,1.1,0.2,1.6,0.4c-0.3-3-1.1-6-1.4-9
			c0-0.1,0.1-0.1,0.2,0c1,3.1,1.7,6.4,2,9.7C179.9,113.2,178.4,112.7,178.2,112.6z"/>
		<path class="st4" d="M177.5,114.4c-0.3,0.5-0.8,0.9-1.4,1.1c-0.3,0.1-0.7,0.2-1,0.1c-0.7-0.2-0.8-0.8-0.6-1.3
			c0.1-0.3,0.1-0.6,0.3-0.9C175.6,114.1,176.5,114.4,177.5,114.4z"/>
		<path class="st12" d="M176.1,115.6c-0.3,0.1-0.7,0.2-1,0.1c-0.7-0.2-0.8-0.8-0.6-1.3C175.3,114.3,176,114.8,176.1,115.6z"/>
		<path class="st4" d="M160.3,112.7c1.8-1,2.9-2.9,2.9-5c2.4-1.2,4.4-3.1,5.8-5.4c-0.1,0.3-0.6,2.4-0.9,3.5
			c8.8-2.3,11.1-9.3,11.1-9.3c1.8,1.5,3.3,3.3,4.3,5.4c0,0-0.3-5.5-3.4-8.9c-2-2.5-5.2-3.6-8.4-3.1c-4.6-0.8-9.2,1-12.1,4.6
			C154.3,101.3,160.3,112.7,160.3,112.7z"/>
		<path class="st4" d="M174.8,103.9c-1.4,0.9-2.9,1.6-4.5,2l0,0c2.5-0.9,4.6-2.4,6.3-4.4c0.7-0.9,1.3-1.8,1.7-2.8
			c0.5-1.1,0.9-2.3,0.9-3.5c0,0,0-0.1,0.1-0.1c0,0,0.1,0,0.1,0.1c0,1.2-0.1,2.4-0.5,3.6c-0.4,1.1-1,2.2-1.8,3.1
			C176.5,102.6,175.7,103.3,174.8,103.9"/>
		<path class="st9" d="M162.4,110.3c0,0-3.1-4.5-5.1-3.4s0.2,7.6,2.6,8.5c1.2,0.6,2.6,0.1,3.2-1.2c0,0,0-0.1,0-0.1L162.4,110.3z"/>
		<path class="st4" d="M157.9,108.7C157.9,108.7,157.9,108.8,157.9,108.7c1.5,0.9,2.7,2.3,3.1,3.9c-0.4-0.6-1.2-0.9-1.8-0.5
			c-0.1,0-0.1,0.1-0.2,0.1c0,0,0,0.1,0,0.1c0.6-0.2,1.3,0,1.6,0.5c0.3,0.4,0.6,0.9,0.8,1.3c0.1,0.1,0.3,0.1,0.3-0.1l0,0
			C161.8,111.9,160.3,108.9,157.9,108.7z"/>
		<g>
			<path class="st9" d="M222.8,103.5c3.4-2.1,7.3-6.8,10.2-7.4c1.4-0.4,2.9,0.2,3.7,1.5c0,0,1.1-3,3.8-3.2c1.4-0.1,2.7,2.1,2.7,2.1
				c0.6-1.4,1.9-2.3,3.4-2.4c1.9,0,3,2.1,3,2.1s2-1.8,4-1.2c4,1.3,5.7,17.6-0.1,20.8c-2.7,1.5-2.9-2.6-2.9-2.6s-1.1,5.9-4.5,6.3
				s-3.3-4.8-3.3-4.8s-1.1,5.7-4.6,5.8c-3.7,0.1-2.7-5.1-2.7-5.1s-2.1,3.9-4.8,3.4c-4.5-0.9,0.3-8.4-1-11.9l-6.1-1.4L222.8,103.5z"
				/>
			<path class="st9" d="M227.6,99.7c-3.4,1.7-8.1-2.2-11.6-1.1c-4.7,1.5,0.6,6.4,7.6,6.9l5.5-0.6L227.6,99.7z"/>
			<path class="st4" d="M250,96.5c2,5.5,2.2,11.4,0.8,17c0,0.2-0.4,0.2-0.3,0C251.1,107.9,250.9,102.1,250,96.5L250,96.5z"/>
			<path class="st4" d="M243.3,96.4c0-0.1,0.1-0.1,0.1,0c2.1,6,2,12.6-0.3,18.6c-0.1,0.2-0.4,0.3-0.3,0.1
				C244.2,110.8,244.3,101.6,243.3,96.4z"/>
			<path class="st4" d="M235.2,115.7c2.2-5.8,2.3-11.8,1.6-17.9c0-0.1,0.1-0.1,0.1,0c1.2,2.9,1.3,6.9,1,9.9c-0.1,2.9-1,5.7-2.6,8.1
				C235.4,115.9,235.2,115.9,235.2,115.7z"/>
		</g>
	</g>
</g>
</svg>
