<?xml version="1.0" encoding="utf-8"?>
<!-- Generator: Adobe Illustrator 27.0.0, SVG Export Plug-In . SVG Version: 6.00 Build 0)  -->
<svg version="1.1" id="圖層_1" xmlns="http://www.w3.org/2000/svg" xmlns:xlink="http://www.w3.org/1999/xlink" x="0px" y="0px"
	 viewBox="0 0 256 256" style="enable-background:new 0 0 256 256;" xml:space="preserve">
<style type="text/css">
	.st0{fill:#FFFFFF;}
	.st1{fill:#2B5FCE;}
</style>
<g>
	<circle class="st0" cx="128" cy="128" r="128"/>
	<g>
		<path class="st1" d="M100.58,207.45c-28.89,0.02-57.04-25.98-61.58-62.99c-2.63-21.39,0.7-41.45,12.45-59.71
			c25.62-39.84,86.39-40.41,111.82-0.43c19.34,30.41,19.17,62.15,0.55,92.97C151.3,198.01,131.63,207.16,100.58,207.45z
			 M145.88,126.42c-0.07-9.31-2.95-22.96-10.33-35.31C121.4,67.43,93.5,66.99,79.93,90.86c-14.74,25.93-14.62,52.9-0.85,79.33
			c5.96,11.45,15.39,19.05,29.3,18.62c14.04-0.44,22.88-8.62,28.97-20.33C143.37,156.9,145.93,144.43,145.88,126.42z"/>
		<path class="st1" d="M174.26,97.02l12.17-1.48c0.39,3.1,1.43,5.48,3.13,7.12c1.7,1.64,3.76,2.46,6.18,2.46
			c2.6,0,4.78-0.98,6.56-2.95c1.77-1.97,2.66-4.62,2.66-7.97c0-3.16-0.85-5.67-2.55-7.52c-1.7-1.85-3.78-2.77-6.22-2.77
			c-1.61,0-3.54,0.31-5.77,0.94l1.39-10.25c3.4,0.09,6-0.65,7.79-2.22c1.79-1.57,2.69-3.65,2.69-6.24c0-2.21-0.66-3.97-1.97-5.28
			c-1.31-1.31-3.06-1.97-5.24-1.97c-2.15,0-3.98,0.75-5.5,2.24c-1.52,1.49-2.45,3.67-2.77,6.53l-11.59-1.97
			c0.81-3.97,2.02-7.14,3.65-9.51c1.63-2.37,3.89-4.24,6.8-5.59c2.91-1.36,6.17-2.04,9.78-2.04c6.18,0,11.13,1.97,14.86,5.91
			c3.07,3.22,4.61,6.86,4.61,10.92c0,5.76-3.15,10.35-9.44,13.78c3.76,0.81,6.76,2.61,9.02,5.42c2.25,2.8,3.38,6.19,3.38,10.16
			c0,5.76-2.1,10.67-6.31,14.72c-4.21,4.06-9.44,6.09-15.71,6.09c-5.94,0-10.86-1.71-14.77-5.12
			C177.15,107,174.89,102.54,174.26,97.02z"/>
	</g>
</g>
</svg>
